<svg xmlns="http://www.w3.org/2000/svg" xmlns:xlink="http://www.w3.org/1999/xlink" viewBox="0 0 399.65 54.23"><defs><style>.cls-1{fill:none;}.cls-2{fill:#e8e8e8;}.cls-3{fill:#fff;stroke:#fff;stroke-miterlimit:10;}.cls-4{fill:#d4841f;}.cls-5{clip-path:url(#clip-path);}.cls-6{fill:url(#Degradado_sin_nombre_3);}</style><clipPath id="clip-path"><path class="cls-1" d="M16.45,42.09l1.39-.8,8.34,4.83v1.61Zm16.36,4,8.34-4.83,1.39.8-9.73,5.64Zm0-8.31,1.33-.55,5.7,3.27-7,4.07ZM19.15,40.53l7-4v8.11Zm26,1.54-9.51-5.46,1.8-.76L48.07,42,30.15,52.32V38.79l.07.1,1.28-.54V50ZM42.3,33.82l1.08-.45v1.06ZM10.92,42l15.26-8.77V35L13.82,42.09,27.49,50V34.59l1.35,2.13V52.34Zm33.77-6.77V32.82l1.37-.58V36Zm2.69-3.5,1.34-.57v9.69L39,35.21l1.8-.75,6.6,3.79ZM15.62,15.84l8.63,13.64-8.63,5Zm-5.35-.52,1.34-.56v23.5L25,30.59l.84,1.31L10.27,40.82Zm2.66-1.11,1.31-.54.06.09V35.2L12.93,36Zm2.58-1L40.72,2.62,56,26.66,30.73,37.25ZM0,18.18l.51,1.21L9,15.87V42.34L29.48,54.23,50,42.32V30.57l7.86-3.3L41.54,1.45,41.24,1Z"/></clipPath><linearGradient id="Degradado_sin_nombre_3" x1="-1575.83" y1="385.91" x2="-1574.83" y2="385.91" gradientTransform="matrix(0, -53.25, -53.25, 0, 20577.19, -83853.23)" gradientUnits="userSpaceOnUse"><stop offset="0" stop-color="#c2360e"/><stop offset="0.15" stop-color="#cd5c17"/><stop offset="0.31" stop-color="#d77e1e"/><stop offset="0.48" stop-color="#de9924"/><stop offset="0.65" stop-color="#e4ad29"/><stop offset="0.82" stop-color="#e7b82b"/><stop offset="1" stop-color="#e8bc2c"/></linearGradient></defs><title>betanzos-logo-w</title><g id="Capa_2" data-name="Capa 2"><g id="Capa_1-2" data-name="Capa 1"><path class="cls-2" d="M94.75,50.26H90.48l-1.3,3.48h-.66l3.77-10.07H93l3.77,10.07h-.66Zm-2.14-5.87s-.22.78-.38,1.21l-1.54,4.09h3.84L93,45.6c-.16-.43-.38-1.21-.38-1.21Z"/><path class="cls-2" d="M104.29,43.67h2.95a3.9,3.9,0,0,1,1.82.3,2.59,2.59,0,0,1,1.39,2.42,2.68,2.68,0,0,1-2,2.78v0a1.85,1.85,0,0,1,.23.36l2.26,4.18h-.74l-2.39-4.46h-2.89v4.46h-.62Zm3.36,5a2.11,2.11,0,0,0,2.15-2.32,2,2,0,0,0-1.18-1.94,3.13,3.13,0,0,0-1.41-.2h-2.3v4.46Z"/><path class="cls-2" d="M123.36,43.5a5.09,5.09,0,0,1,5.13,5.15,5.42,5.42,0,0,1-1.33,3.58l1.3,1.34-.41.39-1.28-1.32a5,5,0,0,1-3.41,1.28,5.16,5.16,0,0,1-5.06-5.27,5.06,5.06,0,0,1,5.06-5.15m0,9.83a4.64,4.64,0,0,0,3-1.13l-1.3-1.33.4-.39,1.28,1.32a5,5,0,0,0,1.1-3.15,4.45,4.45,0,1,0-8.89,0,4.49,4.49,0,0,0,4.41,4.68"/><path class="cls-2" d="M136.68,43.67h.62v6.59a3.14,3.14,0,0,0,6.28,0V43.67h.62v6.62a3.76,3.76,0,0,1-7.52,0Z"/><rect class="cls-2" x="152.93" y="43.67" width="0.62" height="10.07"/><polygon class="cls-2" points="164.73 44.25 160.97 44.25 160.97 43.67 169.1 43.67 169.1 44.25 165.35 44.25 165.35 53.74 164.73 53.74 164.73 44.25"/><polygon class="cls-2" points="176.53 43.67 182.04 43.67 182.04 44.25 177.15 44.25 177.15 48.38 181.17 48.38 181.17 48.95 177.15 48.95 177.15 53.17 182.32 53.17 182.32 53.74 176.53 53.74 176.53 43.67"/><path class="cls-2" d="M194.72,43.5a5.13,5.13,0,0,1,3.6,1.27l-.37.46a4.93,4.93,0,0,0-3.21-1.14,4.35,4.35,0,0,0-4.36,4.55,4.48,4.48,0,0,0,4.4,4.69A4.86,4.86,0,0,0,198.19,52l.39.43a5.3,5.3,0,0,1-3.8,1.53,5.08,5.08,0,0,1-5.05-5.28,5,5,0,0,1,5-5.14"/><polygon class="cls-2" points="209.05 44.25 205.29 44.25 205.29 43.67 213.42 43.67 213.42 44.25 209.66 44.25 209.66 53.74 209.05 53.74 209.05 44.25"/><path class="cls-2" d="M220.7,43.67h.62v6.59a3.15,3.15,0,0,0,6.29,0V43.67h.62v6.62a3.77,3.77,0,0,1-7.53,0Z"/><path class="cls-2" d="M237,43.67h2.95a3.85,3.85,0,0,1,1.81.3,2.59,2.59,0,0,1,1.39,2.42,2.68,2.68,0,0,1-2,2.78v0a1.85,1.85,0,0,1,.23.36l2.26,4.18h-.73l-2.39-4.46h-2.9v4.46H237Zm3.35,5a2.12,2.12,0,0,0,2.16-2.32,2,2,0,0,0-1.18-1.94,3.2,3.2,0,0,0-1.41-.2h-2.31v4.46Z"/><path class="cls-2" d="M256.59,50.26h-4.28L251,53.74h-.66l3.77-10.07h.66l3.77,10.07h-.66Zm-2.15-5.87s-.21.78-.37,1.21l-1.54,4.09h3.84l-1.53-4.09c-.15-.43-.37-1.21-.37-1.21Z"/><rect class="cls-2" x="275.87" y="43.67" width="0.62" height="10.07"/><path class="cls-2" d="M285.36,43.67h.57l5.75,7.9c.33.46.82,1.27.82,1.27h0s-.07-.77-.07-1.27v-7.9h.62V53.74h-.57l-5.75-7.9c-.33-.46-.82-1.26-.82-1.26h0s.07.76.07,1.26v7.9h-.62Z"/><polygon class="cls-2" points="304.26 44.25 300.5 44.25 300.5 43.67 308.63 43.67 308.63 44.25 304.88 44.25 304.88 53.74 304.26 53.74 304.26 44.25"/><polygon class="cls-2" points="316.06 43.67 321.57 43.67 321.57 44.25 316.68 44.25 316.68 48.38 320.69 48.38 320.69 48.95 316.68 48.95 316.68 53.17 321.84 53.17 321.84 53.74 316.06 53.74 316.06 43.67"/><path class="cls-2" d="M334.28,43.5a5.42,5.42,0,0,1,3.51,1.14l-.37.47a5.19,5.19,0,0,0-3.14-1,4.39,4.39,0,0,0-4.37,4.62,4.34,4.34,0,0,0,4.28,4.62,4.72,4.72,0,0,0,3.46-1.66V49.73h-1.8v-.58h2.42v4.59h-.62v-.87c0-.22,0-.43,0-.43h0a4.64,4.64,0,0,1-3.44,1.48,5.22,5.22,0,0,1,.09-10.42"/><path class="cls-2" d="M346.59,43.67h3a3.85,3.85,0,0,1,1.81.3,2.58,2.58,0,0,1,1.4,2.42,2.69,2.69,0,0,1-2,2.78v0a1.85,1.85,0,0,1,.23.36l2.26,4.18h-.73l-2.39-4.46h-2.89v4.46h-.62Zm3.35,5a2.12,2.12,0,0,0,2.16-2.32,2,2,0,0,0-1.18-1.94,3.2,3.2,0,0,0-1.41-.2h-2.3v4.46Z"/><path class="cls-2" d="M366.22,50.26h-4.28l-1.29,3.48H360l3.77-10.07h.66l3.77,10.07h-.66Zm-2.15-5.87s-.21.78-.37,1.21l-1.54,4.09H366l-1.52-4.09c-.16-.43-.38-1.21-.38-1.21Z"/><polygon class="cls-2" points="375.76 43.67 376.38 43.67 376.38 53.17 381.19 53.17 381.19 53.74 375.76 53.74 375.76 43.67"/><path class="cls-2" d="M399.12,48.71a2.23,2.23,0,1,1-2.23-2.23,2.22,2.22,0,0,1,2.23,2.23"/><path class="cls-2" d="M75,48.71a2.23,2.23,0,1,1-2.23-2.23A2.22,2.22,0,0,1,75,48.71"/><path class="cls-3" d="M87.27,16.94c.6-.51,1-.86,1.19-1.06A8.29,8.29,0,0,0,91,9.76a8.28,8.28,0,0,0-2.56-6.07,7.7,7.7,0,0,0-5.49-2.56H75.57V3.64h6.72a6,6,0,0,1,4.35,1.79,6.06,6.06,0,0,1,1.82,4.35,6,6,0,0,1-1.8,4.35,5.9,5.9,0,0,1-4.32,1.81H82v2.52h1.1a6.15,6.15,0,0,1,6.16,6.14,6.11,6.11,0,0,1-6.12,6.18H73.06V1.13H70.55V33.32h12v0a9,9,0,0,0,6.68-2.59,8.25,8.25,0,0,0,2.51-6.14,8.26,8.26,0,0,0-2.53-6.11c-.44-.39-1.1-.89-2-1.52"/><polygon class="cls-3" points="114.83 1.13 112.33 1.13 112.33 33.32 131.05 33.32 131.05 30.81 114.84 30.81 114.84 18.39 127.91 18.39 127.91 15.88 114.84 15.88 114.83 1.13"/><rect class="cls-3" x="117.35" y="1.13" width="13.71" height="2.51"/><rect class="cls-3" x="149.3" y="1.13" width="9.45" height="2.51"/><polygon class="cls-3" points="161.25 33.32 163.76 33.32 163.76 3.64 175.58 3.64 175.58 1.13 161.25 1.13 161.25 33.32"/><polygon class="cls-4" points="186.75 33.32 189.45 33.32 198.67 10.55 197.33 7.19 186.75 33.32"/><polygon class="cls-4" points="198.69 3.83 210.62 33.32 213.32 33.32 200.03 0.5 198.69 3.83"/><polygon class="cls-3" points="256.96 26.83 238.06 6.72 238.06 10.39 238.06 10.39 259.47 33.16 259.47 1.13 256.96 1.13 256.96 26.83"/><polygon class="cls-3" points="233.03 1.36 233.03 33.32 235.54 33.32 235.55 4.05 233.03 1.36"/><polygon class="cls-3" points="304.07 1.13 279.67 1.13 279.67 3.64 302.31 3.65 304.07 1.13"/><polygon class="cls-3" points="278.48 33.32 302.86 33.32 302.86 30.81 283.3 30.81 300.55 6.16 297.49 6.16 278.48 33.32"/><path class="cls-3" d="M350.92,5.41A16.71,16.71,0,0,0,340.37.55V3a13.69,13.69,0,0,1,8.83,4.11,13.82,13.82,0,0,1,4.19,10.09,13.82,13.82,0,0,1-4.19,10.1,14.29,14.29,0,0,1-20.16,0,13.78,13.78,0,0,1-4.19-10.1A13.78,13.78,0,0,1,329,7.13,13.71,13.71,0,0,1,337.86,3V.55a16.77,16.77,0,0,0-10.55,4.86,16.72,16.72,0,0,0-4.93,11.81A16.62,16.62,0,0,0,327.31,29a16.61,16.61,0,0,0,23.61,0,16.06,16.06,0,0,0,3.61-5.3,16.69,16.69,0,0,0,0-13,15.94,15.94,0,0,0-3.61-5.32"/><path class="cls-3" d="M397.26,19.6c-1.84-2.15-4.61-3.34-8.3-3.6v2.48q4.38.35,6.44,2.74A5,5,0,0,1,396.66,25a6.27,6.27,0,0,1-3.88,5.59,10.6,10.6,0,0,1-2.63.76,7.13,7.13,0,0,1-.89.12l-.88,0A11.63,11.63,0,0,1,382.54,30a7.72,7.72,0,0,1-3.91-4.54l-2.37.7a10,10,0,0,0,4.93,5.86A13.87,13.87,0,0,0,388.36,34h0a11.75,11.75,0,0,0,7.07-2.12,8.7,8.7,0,0,0,3.66-6.65,7.39,7.39,0,0,0-1.87-5.58"/><path class="cls-3" d="M378.75,10a6.16,6.16,0,0,1,3.3-5.63,9.68,9.68,0,0,1,2.82-1,10.71,10.71,0,0,1,2.6-.33A9.44,9.44,0,0,1,394.61,6,8.6,8.6,0,0,1,396,7.72l.53.94,2.3-.86A5.3,5.3,0,0,0,398.4,7a14.16,14.16,0,0,0-2-2.7,11.86,11.86,0,0,0-9-3.79,12.3,12.3,0,0,0-7.72,2.44,8.39,8.39,0,0,0-3.46,7,6.66,6.66,0,0,0,2.27,5.23c1.71,1.54,4.35,2.54,7.89,3V15.74q-7.69-1.11-7.7-5.77"/><g class="cls-5"><rect class="cls-6" y="0.98" width="57.89" height="53.25"/></g></g></g></svg>