<svg xmlns="http://www.w3.org/2000/svg" viewBox="0 0 135.1 13.75"><defs><style>.cls-1{fill:#fff;}.cls-2{fill:#d58400;}</style></defs><title>betanzos-logo-w</title><g id="Capa_2" data-name="Capa 2"><g id="Capa_1-2" data-name="Capa 1"><path class="cls-1" d="M6.88,6.76c.24-.21.41-.36.48-.44a3.39,3.39,0,0,0,1-2.51,3.39,3.39,0,0,0-1.06-2.5,3.14,3.14,0,0,0-2.25-1h-3v1H4.83A2.48,2.48,0,0,1,6.62,2a2.45,2.45,0,0,1,.74,1.79A2.43,2.43,0,0,1,6.63,5.6a2.47,2.47,0,0,1-1.78.75H4.71v1h.45A2.46,2.46,0,0,1,7,8.12,2.43,2.43,0,0,1,7.7,9.91,2.47,2.47,0,0,1,7,11.7a2.43,2.43,0,0,1-1.79.75H1V.26H0V13.49H5A3.7,3.7,0,0,0,7.7,12.42a3.39,3.39,0,0,0,1-2.52,3.43,3.43,0,0,0-1-2.52C7.51,7.22,7.24,7,6.88,6.76Z"/><polygon class="cls-1" points="18.21 0.26 17.18 0.26 17.18 13.49 24.88 13.49 24.88 12.46 18.21 12.46 18.21 7.35 23.59 7.35 23.59 6.32 18.21 6.32 18.21 0.26"/><rect class="cls-1" x="19.24" y="0.26" width="5.63" height="1.03"/><rect class="cls-1" x="32.38" y="0.26" width="3.88" height="1.03"/><polygon class="cls-1" points="37.29 13.49 38.32 13.49 38.32 1.29 43.18 1.29 43.18 0.26 37.29 0.26 37.29 13.49"/><polygon class="cls-2" points="47.78 13.49 48.88 13.49 52.67 4.13 52.12 2.75 47.78 13.49"/><polygon class="cls-2" points="52.68 1.37 57.59 13.49 58.7 13.49 53.24 0 52.68 1.37"/><polygon class="cls-1" points="76.64 10.82 68.87 2.56 68.87 4.07 68.87 4.07 77.67 13.43 77.67 0.26 76.64 0.26 76.64 10.82"/><polygon class="cls-1" points="66.8 0.35 66.8 13.49 67.83 13.49 67.84 1.46 66.8 0.35"/><polygon class="cls-1" points="96.01 0.26 85.98 0.26 85.98 1.29 95.28 1.29 96.01 0.26"/><polygon class="cls-1" points="85.49 13.49 95.51 13.49 95.51 12.46 87.47 12.46 94.56 2.33 93.3 2.33 85.49 13.49"/><path class="cls-1" d="M115.27,2A6.56,6.56,0,0,0,113.09.55,6.71,6.71,0,0,0,110.93,0V1a5.61,5.61,0,0,1,3.63,1.69,5.65,5.65,0,0,1,1.72,4.15A5.68,5.68,0,0,1,114.56,11a5.88,5.88,0,0,1-8.29,0,5.68,5.68,0,0,1-1.72-4.15,5.65,5.65,0,0,1,1.72-4.15A5.61,5.61,0,0,1,109.9,1V0a6.71,6.71,0,0,0-2.16.53A6.56,6.56,0,0,0,105.56,2a6.83,6.83,0,0,0-1.48,2.19,6.82,6.82,0,0,0,1.48,7.52,6.93,6.93,0,0,0,2.18,1.49,7,7,0,0,0,5.35,0,6.93,6.93,0,0,0,2.18-1.49,6.49,6.49,0,0,0,1.48-2.18,6.76,6.76,0,0,0,0-5.34A6.53,6.53,0,0,0,115.27,2Z"/><path class="cls-1" d="M134.32,7.85a4.75,4.75,0,0,0-3.41-1.48v1a3.74,3.74,0,0,1,2.65,1.13,2,2,0,0,1,.51,1.55,2.55,2.55,0,0,1-1.59,2.29,4.11,4.11,0,0,1-1.08.32,3.19,3.19,0,0,1-.37.05h-.36a4.7,4.7,0,0,1-2.4-.6,3.14,3.14,0,0,1-1.61-1.86l-1,.29a4.16,4.16,0,0,0,2,2.41,5.8,5.8,0,0,0,3,.77h0a4.87,4.87,0,0,0,2.91-.87,3.61,3.61,0,0,0,1.5-2.73A3,3,0,0,0,134.32,7.85Z"/><path class="cls-1" d="M126.71,3.89a2.52,2.52,0,0,1,1.36-2.31,3.86,3.86,0,0,1,1.15-.43A4.51,4.51,0,0,1,130.3,1a3.87,3.87,0,0,1,2.93,1.26,3.58,3.58,0,0,1,.57.7l.22.39L135,3a2.64,2.64,0,0,0-.17-.33A6.31,6.31,0,0,0,134,1.56,4.88,4.88,0,0,0,130.3,0a5.05,5.05,0,0,0-3.18,1,3.45,3.45,0,0,0-1.42,2.89A2.74,2.74,0,0,0,126.63,6a6,6,0,0,0,3.24,1.25v-1C127.77,6,126.71,5.17,126.71,3.89Z"/></g></g></svg>