<svg xmlns="http://www.w3.org/2000/svg" xmlns:xlink="http://www.w3.org/1999/xlink" viewBox="0 0 90.46 90.46"><defs><style>.cls-1{fill:url(#Degradado_sin_nombre_3);}.cls-2{fill:url(#Degradado_sin_nombre_76);}.cls-3{fill:#fff;}</style><linearGradient id="Degradado_sin_nombre_3" x1="204.01" y1="-81.7" x2="-20.04" y2="97.41" gradientUnits="userSpaceOnUse"><stop offset="0" stop-color="#fff33b"/><stop offset="0.01" stop-color="#fee72e"/><stop offset="0.04" stop-color="#fed51b"/><stop offset="0.07" stop-color="#fdca10"/><stop offset="0.1" stop-color="#fdc70c"/><stop offset="0.4" stop-color="#f3903f"/><stop offset="0.8" stop-color="#ed683c"/><stop offset="1" stop-color="#e93e3a"/></linearGradient><linearGradient id="Degradado_sin_nombre_76" x1="204.01" y1="-81.7" x2="-20.04" y2="97.41" gradientUnits="userSpaceOnUse"><stop offset="0" stop-color="#fdca00"/><stop offset="0.18" stop-color="#fbbf07"/><stop offset="0.51" stop-color="#f5a118"/><stop offset="0.93" stop-color="#eb7035"/><stop offset="1" stop-color="#e9683a"/></linearGradient></defs><title>btn-card-3</title><g id="Capa_2" data-name="Capa 2"><g id="Capa_1-2" data-name="Capa 1"><rect class="cls-1" width="90.46" height="90.46"/><rect class="cls-2" width="90.46" height="90.46"/><path class="cls-3" d="M36.94,36a.58.58,0,0,0,.61-.61v-2.5H38a.58.58,0,0,0,.61-.61.59.59,0,0,0-.61-.62h-.43V30.2a.61.61,0,0,0-1.22,0v5.19A.58.58,0,0,0,36.94,36Z"/><path class="cls-3" d="M52.49,54.14a.59.59,0,0,0,.61-.62V45.33h1.46a.81.81,0,0,0,.6-.36v0a.68.68,0,0,0-.19-.66l-7.82-7a3.66,3.66,0,0,0-4.84,0l-7.83,7a.71.71,0,0,0-.18.67.62.62,0,0,0,.56.38h1.46v8.19a.59.59,0,0,0,.61.62Zm-15.55-10h-.48l6.66-6a2.44,2.44,0,0,1,3.19,0l6.65,6h-.47a.59.59,0,0,0-.62.61v8.2H37.55v-8.2A.58.58,0,0,0,36.94,44.1Z"/><path class="cls-3" d="M60.26,52.91H58.8v-.42a.62.62,0,1,0-1.23,0v.42H55.08a.59.59,0,0,0-.62.61.6.6,0,0,0,.62.62h5.18a.59.59,0,0,0,.61-.62A.58.58,0,0,0,60.26,52.91Z"/><path class="cls-3" d="M35.39,57.57h-.52a.62.62,0,1,0,0,1.23h.52a.62.62,0,0,0,0-1.23Z"/><path class="cls-3" d="M38,57.57h-.52a.62.62,0,1,0,0,1.23H38a.58.58,0,0,0,.61-.61A.59.59,0,0,0,38,57.57Z"/><path class="cls-3" d="M40.57,57.57h-.52a.62.62,0,0,0,0,1.23h.52a.62.62,0,0,0,0-1.23Z"/><path class="cls-3" d="M43.16,57.57h-.52a.62.62,0,0,0,0,1.23h.52a.62.62,0,0,0,0-1.23Z"/><path class="cls-3" d="M45.75,57.57h-.52a.62.62,0,0,0,0,1.23h.52a.62.62,0,0,0,0-1.23Z"/><path class="cls-3" d="M48.34,57.57h-.52a.62.62,0,0,0,0,1.23h.52a.62.62,0,0,0,0-1.23Z"/><path class="cls-3" d="M50.93,57.57h-.52a.62.62,0,0,0,0,1.23h.52a.62.62,0,0,0,0-1.23Z"/><path class="cls-3" d="M53.52,57.57H53a.62.62,0,0,0,0,1.23h.52a.62.62,0,1,0,0-1.23Z"/><path class="cls-3" d="M56.11,57.57h-.52a.62.62,0,0,0,0,1.23h.52a.62.62,0,1,0,0-1.23Z"/><path class="cls-3" d="M60.26,57.57H58.19a.59.59,0,0,0-.62.62v2.07a.59.59,0,0,0,.62.61.62.62,0,0,0,.44-.17.6.6,0,0,0,.17-.44V58.8h1.46a.62.62,0,0,0,0-1.23Z"/><path class="cls-3" d="M55.59,32.89h.52a.59.59,0,0,0,.62-.61.6.6,0,0,0-.62-.62h-.52a.59.59,0,0,0-.61.62A.58.58,0,0,0,55.59,32.89Z"/><path class="cls-3" d="M53,32.89h.52a.59.59,0,0,0,.62-.61.6.6,0,0,0-.62-.62H53a.59.59,0,0,0-.61.62A.58.58,0,0,0,53,32.89Z"/><path class="cls-3" d="M50.41,32.89h.52a.58.58,0,0,0,.61-.61.59.59,0,0,0-.61-.62h-.52a.59.59,0,0,0-.61.62A.58.58,0,0,0,50.41,32.89Z"/><path class="cls-3" d="M47.82,32.89h.52a.58.58,0,0,0,.61-.61.59.59,0,0,0-.61-.62h-.52a.59.59,0,0,0-.61.62A.58.58,0,0,0,47.82,32.89Z"/><path class="cls-3" d="M45.23,32.89h.52a.58.58,0,0,0,.61-.61.59.59,0,0,0-.61-.62h-.52a.59.59,0,0,0-.61.62A.58.58,0,0,0,45.23,32.89Z"/><path class="cls-3" d="M42.64,32.89h.52a.58.58,0,0,0,.61-.61.59.59,0,0,0-.61-.62h-.52a.59.59,0,0,0-.61.62A.58.58,0,0,0,42.64,32.89Z"/><path class="cls-3" d="M40.05,32.89h.52a.58.58,0,0,0,.61-.61.59.59,0,0,0-.61-.62h-.52a.59.59,0,0,0-.61.62A.58.58,0,0,0,40.05,32.89Z"/><path class="cls-3" d="M34.87,32.89a.58.58,0,0,0,.61-.61.59.59,0,0,0-.61-.62h-.52a.59.59,0,0,0-.61.62.58.58,0,0,0,.61.61Z"/><path class="cls-3" d="M58.19,32.89h2.07a.58.58,0,0,0,.61-.61.59.59,0,0,0-.61-.62H58.8V30.2a.62.62,0,0,0-1.23,0v2.08A.59.59,0,0,0,58.19,32.89Z"/><path class="cls-3" d="M32.28,29.59a.59.59,0,0,0-.62.61v1.46H30.2a.59.59,0,0,0-.61.62.58.58,0,0,0,.61.61h2.08a.58.58,0,0,0,.61-.61V30.2A.58.58,0,0,0,32.28,29.59Z"/><path class="cls-3" d="M32.28,34.25a.6.6,0,0,0-.62.62v.52a.59.59,0,0,0,.62.61.58.58,0,0,0,.61-.61v-.52A.59.59,0,0,0,32.28,34.25Z"/><path class="cls-3" d="M32.28,36.84a.6.6,0,0,0-.62.62V38a.59.59,0,0,0,.62.61.58.58,0,0,0,.61-.61v-.52A.59.59,0,0,0,32.28,36.84Z"/><path class="cls-3" d="M32.28,39.44a.59.59,0,0,0-.62.61v.52a.59.59,0,0,0,.62.61.58.58,0,0,0,.61-.61v-.52A.58.58,0,0,0,32.28,39.44Z"/><path class="cls-3" d="M32.28,42a.59.59,0,0,0-.62.61v.52a.59.59,0,0,0,.62.61.58.58,0,0,0,.61-.61v-.52A.58.58,0,0,0,32.28,42Z"/><path class="cls-3" d="M32.28,44.62a.59.59,0,0,0-.62.61v.52a.59.59,0,0,0,.62.61.58.58,0,0,0,.61-.61v-.52A.58.58,0,0,0,32.28,44.62Z"/><path class="cls-3" d="M32.28,47.21a.59.59,0,0,0-.62.61v.52a.59.59,0,0,0,.62.61.58.58,0,0,0,.61-.61v-.52A.58.58,0,0,0,32.28,47.21Z"/><path class="cls-3" d="M32.28,49.8a.59.59,0,0,0-.62.61v.52a.59.59,0,0,0,.62.61.58.58,0,0,0,.61-.61v-.52A.58.58,0,0,0,32.28,49.8Z"/><path class="cls-3" d="M32.28,52.39a.59.59,0,0,0-.62.61v.52a.6.6,0,0,0,.62.62.59.59,0,0,0,.61-.62V53A.58.58,0,0,0,32.28,52.39Z"/><path class="cls-3" d="M32.28,55a.59.59,0,0,0-.62.61v.52a.6.6,0,0,0,.62.62.59.59,0,0,0,.61-.62v-.52A.58.58,0,0,0,32.28,55Z"/><path class="cls-3" d="M58.19,35.48a.62.62,0,0,0,.44-.17.6.6,0,0,0,.17-.44v-.52a.62.62,0,0,0-1.23,0v.52A.59.59,0,0,0,58.19,35.48Z"/><path class="cls-3" d="M58.19,38.07a.62.62,0,0,0,.44-.17.6.6,0,0,0,.17-.44v-.52a.62.62,0,0,0-1.23,0v.52A.59.59,0,0,0,58.19,38.07Z"/><path class="cls-3" d="M58.19,40.66a.62.62,0,0,0,.44-.17.6.6,0,0,0,.17-.44v-.52a.62.62,0,0,0-1.23,0v.52A.59.59,0,0,0,58.19,40.66Z"/><path class="cls-3" d="M58.19,43.25a.62.62,0,0,0,.44-.17.6.6,0,0,0,.17-.44v-.52a.62.62,0,0,0-1.23,0v.52A.59.59,0,0,0,58.19,43.25Z"/><path class="cls-3" d="M58.19,45.84a.58.58,0,0,0,.44-.17.6.6,0,0,0,.17-.44v-.52a.62.62,0,0,0-1.23,0v.52A.59.59,0,0,0,58.19,45.84Z"/><path class="cls-3" d="M58.19,48.44a.59.59,0,0,0,.44-.18.6.6,0,0,0,.17-.44V47.3a.62.62,0,0,0-1.23,0v.52A.59.59,0,0,0,58.19,48.44Z"/><path class="cls-3" d="M58.19,51a.62.62,0,0,0,.44-.17.64.64,0,0,0,.17-.45v-.52a.62.62,0,0,0-1.23,0v.52A.59.59,0,0,0,58.19,51Z"/><path class="cls-3" d="M58.19,56.73a.62.62,0,0,0,.44-.17.64.64,0,0,0,.17-.45v-.52a.62.62,0,0,0-1.23,0v.52A.59.59,0,0,0,58.19,56.73Z"/><path class="cls-3" d="M32.28,57.57H30.2a.62.62,0,0,0,0,1.23h1.46v1.46a.59.59,0,0,0,.62.61.58.58,0,0,0,.61-.61V58.19A.59.59,0,0,0,32.28,57.57Z"/></g></g></svg>