<svg xmlns="http://www.w3.org/2000/svg" xmlns:xlink="http://www.w3.org/1999/xlink" viewBox="0 0 140 140"><defs><style>.cls-1{fill:url(#Degradado_sin_nombre_76);}.cls-2{fill:#fff;}</style><linearGradient id="Degradado_sin_nombre_76" x1="315.8" y1="-126.5" x2="-31.05" y2="150.78" gradientUnits="userSpaceOnUse"><stop offset="0" stop-color="#ffca00"/><stop offset="0.18" stop-color="#ffbf06"/><stop offset="0.51" stop-color="#ffa116"/><stop offset="0.93" stop-color="#ff7030"/><stop offset="1" stop-color="#ff6834"/></linearGradient></defs><title>1_Planeción</title><g id="Capa_2" data-name="Capa 2"><rect class="cls-1" x="-0.02" y="-0.02" width="140.05" height="140.05"/></g><g id="Capa_1" data-name="Capa 1"><path class="cls-2" d="M70.1,57.58l1.63-1.15A.68.68,0,1,0,71,55.32l-1.64,1.15a.68.68,0,0,0,.79,1.11Z"/><path class="cls-2" d="M68.19,52.06l2-.05a.64.64,0,0,0,.66-.69.65.65,0,0,0-.69-.66l-2,0a.68.68,0,1,0,0,1.36Z"/><path class="cls-2" d="M69,46.77,70.53,48a.66.66,0,0,0,1-.11.65.65,0,0,0-.11-.95L69.81,45.7A.68.68,0,0,0,69,46.77Z"/><path class="cls-2" d="M88.43,57.58l-1.64-1.15a.68.68,0,0,1,.78-1.11l1.64,1.15a.68.68,0,0,1-.78,1.11Z"/><path class="cls-2" d="M90.34,52.06l-2-.05a.68.68,0,1,1,0-1.35l2,0a.65.65,0,0,1,.66.7A.64.64,0,0,1,90.34,52.06Z"/><path class="cls-2" d="M89.56,46.77,88,48A.65.65,0,0,1,87,47.9a.64.64,0,0,1,.11-.95l1.56-1.25a.68.68,0,0,1,.85,1.07Z"/><path class="cls-2" d="M82.75,68.12l-3.06,3a.71.71,0,0,1-1,0l-3-3.06a.69.69,0,0,1-.21-.51l.08-9.94a5.91,5.91,0,0,1-.8-.67,6.43,6.43,0,1,1,9.1.07,6,6,0,0,1-.81.67v1.85a.68.68,0,0,1-.22.5l-.51.51.51.5a.74.74,0,0,1,.2.51v2a.76.76,0,0,1-.22.51l-.51.5.5.51a.67.67,0,0,1,.21.5l0,2A.71.71,0,0,1,82.75,68.12ZM79.2,69.61l2.34-2.3V65.88l-.8-.81a.72.72,0,0,1,0-1l.81-.8V61.84L80.79,61a.71.71,0,0,1,0-1l.81-.8,0-1.94a.68.68,0,0,1,.34-.6,5.37,5.37,0,0,0,.89-.69,5,5,0,1,0-7.08-.05,5.88,5.88,0,0,0,.88.7.7.7,0,0,1,.33.6l-.08,10Z"/><path class="cls-2" d="M79.48,67.44a.71.71,0,0,1-1.22-.51V58.85a.72.72,0,1,1,1.43,0v8.08A.72.72,0,0,1,79.48,67.44Z"/><path class="cls-2" d="M80.63,53a2.08,2.08,0,1,1,0-2.94A2.09,2.09,0,0,1,80.63,53Zm-1.95-2a.7.7,0,1,0,1,1,.69.69,0,0,0,0-1A.7.7,0,0,0,78.68,51Z"/><path class="cls-2" d="M93,73.72h-21a1.42,1.42,0,0,0-.4-1.14l-4-4a1.41,1.41,0,0,0-2,0l-2.44,2.44-2.7-2.69a2.57,2.57,0,0,0-4.31,1.15l-1.41,5.26a3.52,3.52,0,0,0-1.86,1.86L47.59,78a2.58,2.58,0,0,0-1.16,4.32l2.7,2.69L46.68,87.5a1.41,1.41,0,0,0,0,2l4,4a1.4,1.4,0,0,0,1,.41,1.44,1.44,0,0,0,1-.41L71,75.13H92.27V91.77a.71.71,0,0,1-.7.7H67.85a.72.72,0,0,1-.71-.7V78.87a.7.7,0,0,0-.7-.7c-.39,0-.7.24-.7,4.63v9a2.1,2.1,0,0,0,.62,1.49,2.06,2.06,0,0,0,1.49.62H91.57a2.11,2.11,0,0,0,2.11-2.11V74.42A.7.7,0,0,0,93,73.72ZM57.48,69.88a1.17,1.17,0,0,1,2-.53l2.69,2.7L58.88,75.3l.85-3.17a.7.7,0,0,0-1.36-.36l-.82,3a3.32,3.32,0,0,0-1.31-.32Zm-2,6.11a2.09,2.09,0,0,1,2.13.57l-3,3A2.1,2.1,0,0,1,55.49,76Zm-8.06,5.37a1.17,1.17,0,0,1,.52-2l4.62-1.24a3.55,3.55,0,0,0,.32,1.32l-3,.82a.69.69,0,0,0-.49.86.71.71,0,0,0,.86.5l3.16-.85-3.25,3.25Zm4.22,11.11-4-4,2.95-2.94,15.95-16,4,4Z"/><rect class="cls-2" x="77.07" y="74.11" width="3.12" height="18.73"/><rect class="cls-2" x="57.56" y="76.93" width="3.12" height="7.36" transform="translate(-39.68 65.41) rotate(-45)"/></g></svg>