<svg xmlns="http://www.w3.org/2000/svg" xmlns:xlink="http://www.w3.org/1999/xlink" viewBox="0 0 140 140"><defs><style>.cls-1{fill:#f6f6f6;}.cls-2{fill:url(#Degradado_sin_nombre_3);}</style><linearGradient id="Degradado_sin_nombre_3" x1="88.09" y1="49.5" x2="47.74" y2="102.54" gradientUnits="userSpaceOnUse"><stop offset="0" stop-color="#fff20a"/><stop offset="0.01" stop-color="#ffe700"/><stop offset="0.04" stop-color="#ffd500"/><stop offset="0.07" stop-color="#ffca00"/><stop offset="0.1" stop-color="#ffc700"/><stop offset="0.4" stop-color="#ff9035"/><stop offset="0.8" stop-color="#ff6836"/><stop offset="1" stop-color="#ff3c37"/></linearGradient></defs><title>1_Planeción</title><g id="Capa_1" data-name="Capa 1"><rect class="cls-1" x="0.08" y="-0.05" width="140.05" height="140.05"/><path class="cls-2" d="M46.49,93.91h47.2a.81.81,0,0,0,.81-.81h0V79.74a4.82,4.82,0,0,0-1.87-3.92,4.73,4.73,0,0,0-4.48-.64L85.92,76a2.46,2.46,0,0,1-2.78-.78,4.21,4.21,0,0,0-3.29-1.67H78.38l1.39-2.9a.83.83,0,0,0,0-.72l-3.26-6.51a.81.81,0,0,0-.73-.45H72.53V58.92a.81.81,0,0,0,.81-.81h0V48.5a3.37,3.37,0,0,0-2.65-3.36,3.26,3.26,0,0,0-3.86,3.2v4.22l-.7.14a11.75,11.75,0,0,1-5.3-.29,8.48,8.48,0,0,0-6,.61,3.9,3.9,0,0,1-3.58.06,5.73,5.73,0,0,0-2.69-.67H46.49a.82.82,0,0,0-.81.82h0V93.1a.81.81,0,0,0,.81.81ZM71.22,57.29H69a.49.49,0,0,1-.5-.49V50.47A.5.5,0,0,1,69,50h2.26a.5.5,0,0,1,.5.5V56.8A.5.5,0,0,1,71.22,57.29Zm-3.57,2.45V63H64.39a.81.81,0,0,0-.73.45l-3,6.06h-.31V59.74ZM53.81,80.89V71.13h6.81l4.63,9.76Zm-6.51,0V71.13h4.89v9.76ZM58.7,69.5H47.3V59.74H58.7Zm-11.4,13H58.7v9.77H47.3Zm13,0H66l1,2.08a3.4,3.4,0,0,0,2.69,2,3.34,3.34,0,0,0,3.41-2l1-2.06h5.76v9.77H60.32Zm32.55,9.77H81.48V82.52H92.87Zm-13-17.09a2.4,2.4,0,0,1,1.93.94,4.09,4.09,0,0,0,4.71,1.4l2.13-.79a3.13,3.13,0,0,1,2.72.17,3.07,3.07,0,0,1,1.53,2.66v1.31h-18l2.55-5.33A.66.66,0,0,1,78,75.2ZM75.52,65.1l2.36,4.72a1.16,1.16,0,0,1,0,1L71.63,83.89l0,0a1.69,1.69,0,0,1-2.22.91,1.66,1.66,0,0,1-.87-.84L62.28,70.83a1.13,1.13,0,0,1,0-1l2.36-4.73a.89.89,0,0,1,.79-.48h1.73a.48.48,0,0,1,.48.48v3.47a2.52,2.52,0,0,0,1.83,2.49,2.46,2.46,0,0,0,3-2.37V65.1a.47.47,0,0,1,.48-.48h1.73A.87.87,0,0,1,75.52,65.1ZM70.9,68.69a.81.81,0,0,1-.81.81.82.82,0,0,1-.82-.81V58.92H70.9Zm-.81-22a1.62,1.62,0,0,1,1.63,1.62H68.46a1.62,1.62,0,0,1,1.63-1.62ZM48.58,54a3.87,3.87,0,0,1,1.8.42,5.81,5.81,0,0,0,5.19,0,6.83,6.83,0,0,1,4.8-.51,13.74,13.74,0,0,0,6.11.32l.35-.07v3.89H47.3V54Z"/></g></svg>