<svg xmlns="http://www.w3.org/2000/svg" xmlns:xlink="http://www.w3.org/1999/xlink" viewBox="0 0 90.46 90.46"><defs><style>.cls-1{fill:#f7f7f7;}.cls-2{fill:url(#Degradado_sin_nombre_3);}.cls-3{fill:url(#Degradado_sin_nombre_3-2);}.cls-4{fill:url(#Degradado_sin_nombre_3-3);}.cls-5{fill:url(#Degradado_sin_nombre_3-4);}.cls-6{fill:url(#Degradado_sin_nombre_3-5);}.cls-7{fill:url(#Degradado_sin_nombre_3-6);}.cls-8{fill:url(#Degradado_sin_nombre_3-7);}.cls-9{fill:url(#Degradado_sin_nombre_3-8);}.cls-10{fill:url(#Degradado_sin_nombre_3-9);}.cls-11{fill:url(#Degradado_sin_nombre_3-10);}.cls-12{fill:url(#Degradado_sin_nombre_3-11);}.cls-13{fill:url(#Degradado_sin_nombre_3-12);}.cls-14{fill:url(#Degradado_sin_nombre_3-13);}.cls-15{fill:url(#Degradado_sin_nombre_3-14);}.cls-16{fill:url(#Degradado_sin_nombre_3-15);}.cls-17{fill:url(#Degradado_sin_nombre_3-16);}.cls-18{fill:url(#Degradado_sin_nombre_3-17);}.cls-19{fill:url(#Degradado_sin_nombre_3-18);}.cls-20{fill:url(#Degradado_sin_nombre_3-19);}.cls-21{fill:url(#Degradado_sin_nombre_3-20);}.cls-22{fill:url(#Degradado_sin_nombre_3-21);}.cls-23{fill:url(#Degradado_sin_nombre_3-22);}.cls-24{fill:url(#Degradado_sin_nombre_3-23);}.cls-25{fill:url(#Degradado_sin_nombre_3-24);}.cls-26{fill:url(#Degradado_sin_nombre_3-25);}.cls-27{fill:url(#Degradado_sin_nombre_3-26);}.cls-28{fill:url(#Degradado_sin_nombre_3-27);}.cls-29{fill:url(#Degradado_sin_nombre_3-28);}.cls-30{fill:url(#Degradado_sin_nombre_3-29);}.cls-31{fill:url(#Degradado_sin_nombre_3-30);}.cls-32{fill:url(#Degradado_sin_nombre_3-31);}.cls-33{fill:url(#Degradado_sin_nombre_3-32);}.cls-34{fill:url(#Degradado_sin_nombre_3-33);}.cls-35{fill:url(#Degradado_sin_nombre_3-34);}.cls-36{fill:url(#Degradado_sin_nombre_3-35);}.cls-37{fill:url(#Degradado_sin_nombre_3-36);}.cls-38{fill:url(#Degradado_sin_nombre_3-37);}.cls-39{fill:url(#Degradado_sin_nombre_3-38);}.cls-40{fill:url(#Degradado_sin_nombre_3-39);}.cls-41{fill:url(#Degradado_sin_nombre_3-40);}.cls-42{fill:url(#Degradado_sin_nombre_3-41);}</style><linearGradient id="Degradado_sin_nombre_3" x1="71.94" y1="10.98" x2="8.38" y2="50.6" gradientUnits="userSpaceOnUse"><stop offset="0" stop-color="#fff33b"/><stop offset="0.01" stop-color="#fee72e"/><stop offset="0.04" stop-color="#fed51b"/><stop offset="0.07" stop-color="#fdca10"/><stop offset="0.1" stop-color="#fdc70c"/><stop offset="0.4" stop-color="#f3903f"/><stop offset="0.8" stop-color="#ed683c"/><stop offset="1" stop-color="#e93e3a"/></linearGradient><linearGradient id="Degradado_sin_nombre_3-2" x1="80.68" y1="25" x2="17.12" y2="64.62" xlink:href="#Degradado_sin_nombre_3"/><linearGradient id="Degradado_sin_nombre_3-3" x1="87.05" y1="35.21" x2="23.49" y2="74.83" xlink:href="#Degradado_sin_nombre_3"/><linearGradient id="Degradado_sin_nombre_3-4" x1="82.83" y1="28.45" x2="19.27" y2="68.07" xlink:href="#Degradado_sin_nombre_3"/><linearGradient id="Degradado_sin_nombre_3-5" x1="83.56" y1="29.61" x2="20" y2="69.23" xlink:href="#Degradado_sin_nombre_3"/><linearGradient id="Degradado_sin_nombre_3-6" x1="84.28" y1="30.77" x2="20.72" y2="70.39" xlink:href="#Degradado_sin_nombre_3"/><linearGradient id="Degradado_sin_nombre_3-7" x1="85.01" y1="31.94" x2="21.45" y2="71.56" xlink:href="#Degradado_sin_nombre_3"/><linearGradient id="Degradado_sin_nombre_3-8" x1="85.73" y1="33.1" x2="22.17" y2="72.72" xlink:href="#Degradado_sin_nombre_3"/><linearGradient id="Degradado_sin_nombre_3-9" x1="86.46" y1="34.26" x2="22.9" y2="73.88" xlink:href="#Degradado_sin_nombre_3"/><linearGradient id="Degradado_sin_nombre_3-10" x1="87.18" y1="35.43" x2="23.62" y2="75.05" xlink:href="#Degradado_sin_nombre_3"/><linearGradient id="Degradado_sin_nombre_3-11" x1="87.91" y1="36.59" x2="24.35" y2="76.21" xlink:href="#Degradado_sin_nombre_3"/><linearGradient id="Degradado_sin_nombre_3-12" x1="88.63" y1="37.75" x2="25.07" y2="77.37" xlink:href="#Degradado_sin_nombre_3"/><linearGradient id="Degradado_sin_nombre_3-13" x1="89.75" y1="39.55" x2="26.19" y2="79.17" xlink:href="#Degradado_sin_nombre_3"/><linearGradient id="Degradado_sin_nombre_3-14" x1="77" y1="19.09" x2="13.44" y2="58.71" xlink:href="#Degradado_sin_nombre_3"/><linearGradient id="Degradado_sin_nombre_3-15" x1="76.28" y1="17.93" x2="12.72" y2="57.55" xlink:href="#Degradado_sin_nombre_3"/><linearGradient id="Degradado_sin_nombre_3-16" x1="75.55" y1="16.77" x2="11.99" y2="56.39" xlink:href="#Degradado_sin_nombre_3"/><linearGradient id="Degradado_sin_nombre_3-17" x1="74.83" y1="15.6" x2="11.27" y2="55.23" xlink:href="#Degradado_sin_nombre_3"/><linearGradient id="Degradado_sin_nombre_3-18" x1="74.1" y1="14.44" x2="10.54" y2="54.06" xlink:href="#Degradado_sin_nombre_3"/><linearGradient id="Degradado_sin_nombre_3-19" x1="73.38" y1="13.28" x2="9.82" y2="52.9" xlink:href="#Degradado_sin_nombre_3"/><linearGradient id="Degradado_sin_nombre_3-20" x1="72.65" y1="12.12" x2="9.09" y2="51.74" xlink:href="#Degradado_sin_nombre_3"/><linearGradient id="Degradado_sin_nombre_3-21" x1="71.06" y1="9.56" x2="7.5" y2="49.18" xlink:href="#Degradado_sin_nombre_3"/><linearGradient id="Degradado_sin_nombre_3-22" x1="77.48" y1="19.86" x2="13.92" y2="59.48" xlink:href="#Degradado_sin_nombre_3"/><linearGradient id="Degradado_sin_nombre_3-23" x1="69.94" y1="7.76" x2="6.38" y2="47.38" xlink:href="#Degradado_sin_nombre_3"/><linearGradient id="Degradado_sin_nombre_3-24" x1="71.68" y1="10.56" x2="8.12" y2="50.18" xlink:href="#Degradado_sin_nombre_3"/><linearGradient id="Degradado_sin_nombre_3-25" x1="72.85" y1="12.43" x2="9.29" y2="52.05" xlink:href="#Degradado_sin_nombre_3"/><linearGradient id="Degradado_sin_nombre_3-26" x1="74.01" y1="14.29" x2="10.45" y2="53.91" xlink:href="#Degradado_sin_nombre_3"/><linearGradient id="Degradado_sin_nombre_3-27" x1="75.17" y1="16.16" x2="11.61" y2="55.78" xlink:href="#Degradado_sin_nombre_3"/><linearGradient id="Degradado_sin_nombre_3-28" x1="76.34" y1="18.03" x2="12.77" y2="57.65" xlink:href="#Degradado_sin_nombre_3"/><linearGradient id="Degradado_sin_nombre_3-29" x1="77.5" y1="19.89" x2="13.94" y2="59.51" xlink:href="#Degradado_sin_nombre_3"/><linearGradient id="Degradado_sin_nombre_3-30" x1="78.66" y1="21.76" x2="15.1" y2="61.38" xlink:href="#Degradado_sin_nombre_3"/><linearGradient id="Degradado_sin_nombre_3-31" x1="79.83" y1="23.62" x2="16.26" y2="63.24" xlink:href="#Degradado_sin_nombre_3"/><linearGradient id="Degradado_sin_nombre_3-32" x1="80.99" y1="25.49" x2="17.43" y2="65.11" xlink:href="#Degradado_sin_nombre_3"/><linearGradient id="Degradado_sin_nombre_3-33" x1="78.7" y1="21.82" x2="15.14" y2="61.44" xlink:href="#Degradado_sin_nombre_3"/><linearGradient id="Degradado_sin_nombre_3-34" x1="79.86" y1="23.69" x2="16.3" y2="63.31" xlink:href="#Degradado_sin_nombre_3"/><linearGradient id="Degradado_sin_nombre_3-35" x1="81.03" y1="25.55" x2="17.47" y2="65.17" xlink:href="#Degradado_sin_nombre_3"/><linearGradient id="Degradado_sin_nombre_3-36" x1="82.19" y1="27.42" x2="18.63" y2="67.04" xlink:href="#Degradado_sin_nombre_3"/><linearGradient id="Degradado_sin_nombre_3-37" x1="83.35" y1="29.28" x2="19.79" y2="68.9" xlink:href="#Degradado_sin_nombre_3"/><linearGradient id="Degradado_sin_nombre_3-38" x1="84.52" y1="31.15" x2="20.96" y2="70.77" xlink:href="#Degradado_sin_nombre_3"/><linearGradient id="Degradado_sin_nombre_3-39" x1="85.68" y1="33.02" x2="22.12" y2="72.64" xlink:href="#Degradado_sin_nombre_3"/><linearGradient id="Degradado_sin_nombre_3-40" x1="88.24" y1="37.12" x2="24.68" y2="76.74" xlink:href="#Degradado_sin_nombre_3"/><linearGradient id="Degradado_sin_nombre_3-41" x1="82.21" y1="27.45" x2="18.65" y2="67.07" xlink:href="#Degradado_sin_nombre_3"/></defs><title>btn-card-2</title><g id="Capa_2" data-name="Capa 2"><g id="Capa_1-2" data-name="Capa 1"><rect class="cls-1" width="90.46" height="90.46"/><path class="cls-2" d="M36.94,36a.58.58,0,0,0,.61-.61v-2.5H38a.58.58,0,0,0,.61-.61.59.59,0,0,0-.61-.62h-.43V30.2a.61.61,0,0,0-1.22,0v5.19A.58.58,0,0,0,36.94,36Z"/><path class="cls-3" d="M52.49,54.14a.59.59,0,0,0,.61-.62V45.33h1.46a.81.81,0,0,0,.6-.36v0a.68.68,0,0,0-.19-.66l-7.82-7a3.66,3.66,0,0,0-4.84,0l-7.83,7a.71.71,0,0,0-.18.67.62.62,0,0,0,.56.38h1.46v8.19a.59.59,0,0,0,.61.62Zm-15.55-10h-.48l6.66-6a2.44,2.44,0,0,1,3.19,0l6.65,6h-.47a.59.59,0,0,0-.62.61v8.2H37.55v-8.2A.58.58,0,0,0,36.94,44.1Z"/><path class="cls-4" d="M60.26,52.91H58.8v-.42a.62.62,0,1,0-1.23,0v.42H55.08a.59.59,0,0,0-.62.61.6.6,0,0,0,.62.62h5.18a.59.59,0,0,0,.61-.62A.58.58,0,0,0,60.26,52.91Z"/><path class="cls-5" d="M35.39,57.57h-.52a.62.62,0,1,0,0,1.23h.52a.62.62,0,0,0,0-1.23Z"/><path class="cls-6" d="M38,57.57h-.52a.62.62,0,1,0,0,1.23H38a.6.6,0,0,0,.44-.17.62.62,0,0,0,.17-.44A.59.59,0,0,0,38,57.57Z"/><path class="cls-7" d="M40.57,57.57h-.52a.62.62,0,0,0,0,1.23h.52a.62.62,0,0,0,0-1.23Z"/><path class="cls-8" d="M43.16,57.57h-.52a.62.62,0,0,0,0,1.23h.52a.62.62,0,0,0,0-1.23Z"/><path class="cls-9" d="M45.75,57.57h-.52a.62.62,0,0,0,0,1.23h.52a.62.62,0,0,0,0-1.23Z"/><path class="cls-10" d="M48.34,57.57h-.52a.62.62,0,0,0,0,1.23h.52a.62.62,0,0,0,0-1.23Z"/><path class="cls-11" d="M50.93,57.57h-.52a.62.62,0,0,0,0,1.23h.52a.62.62,0,0,0,0-1.23Z"/><path class="cls-12" d="M53.52,57.57H53a.62.62,0,0,0,0,1.23h.52a.62.62,0,1,0,0-1.23Z"/><path class="cls-13" d="M56.11,57.57h-.52a.62.62,0,0,0,0,1.23h.52a.62.62,0,1,0,0-1.23Z"/><path class="cls-14" d="M60.26,57.57H58.19a.59.59,0,0,0-.62.62v2.07a.59.59,0,0,0,.62.61.62.62,0,0,0,.44-.17.6.6,0,0,0,.17-.44V58.8h1.46a.62.62,0,0,0,0-1.23Z"/><path class="cls-15" d="M55.59,32.89h.52a.59.59,0,0,0,.62-.61.6.6,0,0,0-.62-.62h-.52a.59.59,0,0,0-.61.62A.58.58,0,0,0,55.59,32.89Z"/><path class="cls-16" d="M53,32.89h.52a.59.59,0,0,0,.62-.61.6.6,0,0,0-.62-.62H53a.59.59,0,0,0-.61.62A.58.58,0,0,0,53,32.89Z"/><path class="cls-17" d="M50.41,32.89h.52a.58.58,0,0,0,.61-.61.59.59,0,0,0-.61-.62h-.52a.59.59,0,0,0-.61.62A.58.58,0,0,0,50.41,32.89Z"/><path class="cls-18" d="M47.82,32.89h.52a.58.58,0,0,0,.61-.61.59.59,0,0,0-.61-.62h-.52a.59.59,0,0,0-.61.62A.58.58,0,0,0,47.82,32.89Z"/><path class="cls-19" d="M45.23,32.89h.52a.58.58,0,0,0,.61-.61.59.59,0,0,0-.61-.62h-.52a.59.59,0,0,0-.61.62A.58.58,0,0,0,45.23,32.89Z"/><path class="cls-20" d="M42.64,32.89h.52a.58.58,0,0,0,.61-.61.59.59,0,0,0-.61-.62h-.52a.59.59,0,0,0-.61.62A.58.58,0,0,0,42.64,32.89Z"/><path class="cls-21" d="M40.05,32.89h.52a.58.58,0,0,0,.61-.61.59.59,0,0,0-.61-.62h-.52a.59.59,0,0,0-.61.62A.58.58,0,0,0,40.05,32.89Z"/><path class="cls-22" d="M34.87,32.89a.58.58,0,0,0,.61-.61.59.59,0,0,0-.61-.62h-.52a.59.59,0,0,0-.61.62.58.58,0,0,0,.61.61Z"/><path class="cls-23" d="M58.19,32.89h2.07a.58.58,0,0,0,.61-.61.59.59,0,0,0-.61-.62H58.8V30.2a.62.62,0,0,0-1.23,0v2.08A.59.59,0,0,0,58.19,32.89Z"/><path class="cls-24" d="M32.28,29.59a.59.59,0,0,0-.62.61v1.46H30.2a.59.59,0,0,0-.61.62.58.58,0,0,0,.61.61h2.08a.58.58,0,0,0,.61-.61V30.2A.58.58,0,0,0,32.28,29.59Z"/><path class="cls-25" d="M32.28,34.25a.6.6,0,0,0-.62.62v.52a.59.59,0,0,0,.62.61.58.58,0,0,0,.61-.61v-.52A.59.59,0,0,0,32.28,34.25Z"/><path class="cls-26" d="M32.28,36.84a.6.6,0,0,0-.62.62V38a.59.59,0,0,0,.62.61.58.58,0,0,0,.61-.61v-.52A.59.59,0,0,0,32.28,36.84Z"/><path class="cls-27" d="M32.28,39.44a.59.59,0,0,0-.62.61v.52a.59.59,0,0,0,.62.61.58.58,0,0,0,.61-.61v-.52A.58.58,0,0,0,32.28,39.44Z"/><path class="cls-28" d="M32.28,42a.59.59,0,0,0-.62.61v.52a.59.59,0,0,0,.62.61.58.58,0,0,0,.61-.61v-.52A.58.58,0,0,0,32.28,42Z"/><path class="cls-29" d="M32.28,44.62a.59.59,0,0,0-.62.61v.52a.59.59,0,0,0,.62.61.58.58,0,0,0,.61-.61v-.52A.58.58,0,0,0,32.28,44.62Z"/><path class="cls-30" d="M32.28,47.21a.59.59,0,0,0-.62.61v.52a.59.59,0,0,0,.62.61.58.58,0,0,0,.61-.61v-.52A.58.58,0,0,0,32.28,47.21Z"/><path class="cls-31" d="M32.28,49.8a.59.59,0,0,0-.62.61v.52a.59.59,0,0,0,.62.61.58.58,0,0,0,.61-.61v-.52A.58.58,0,0,0,32.28,49.8Z"/><path class="cls-32" d="M32.28,52.39a.59.59,0,0,0-.62.61v.52a.6.6,0,0,0,.62.62.59.59,0,0,0,.61-.62V53A.58.58,0,0,0,32.28,52.39Z"/><path class="cls-33" d="M32.28,55a.59.59,0,0,0-.62.61v.52a.6.6,0,0,0,.62.62.59.59,0,0,0,.61-.62v-.52A.58.58,0,0,0,32.28,55Z"/><path class="cls-34" d="M58.19,35.48a.62.62,0,0,0,.44-.17.6.6,0,0,0,.17-.44v-.52a.62.62,0,0,0-1.23,0v.52A.59.59,0,0,0,58.19,35.48Z"/><path class="cls-35" d="M58.19,38.07a.62.62,0,0,0,.44-.17.6.6,0,0,0,.17-.44v-.52a.62.62,0,0,0-1.23,0v.52A.59.59,0,0,0,58.19,38.07Z"/><path class="cls-36" d="M58.19,40.66a.62.62,0,0,0,.44-.17.6.6,0,0,0,.17-.44v-.52a.62.62,0,0,0-1.23,0v.52A.59.59,0,0,0,58.19,40.66Z"/><path class="cls-37" d="M58.19,43.25a.62.62,0,0,0,.44-.17.6.6,0,0,0,.17-.44v-.52a.62.62,0,0,0-1.23,0v.52A.59.59,0,0,0,58.19,43.25Z"/><path class="cls-38" d="M58.19,45.84a.58.58,0,0,0,.44-.17.6.6,0,0,0,.17-.44v-.52a.62.62,0,0,0-1.23,0v.52A.59.59,0,0,0,58.19,45.84Z"/><path class="cls-39" d="M58.19,48.44a.59.59,0,0,0,.44-.18.6.6,0,0,0,.17-.44V47.3a.62.62,0,0,0-1.23,0v.52A.59.59,0,0,0,58.19,48.44Z"/><path class="cls-40" d="M58.19,51a.62.62,0,0,0,.44-.17.64.64,0,0,0,.17-.45v-.52a.62.62,0,0,0-1.23,0v.52A.59.59,0,0,0,58.19,51Z"/><path class="cls-41" d="M58.19,56.73a.62.62,0,0,0,.44-.17.64.64,0,0,0,.17-.45v-.52a.62.62,0,0,0-1.23,0v.52A.59.59,0,0,0,58.19,56.73Z"/><path class="cls-42" d="M32.28,57.57H30.2a.62.62,0,0,0,0,1.23h1.46v1.46a.59.59,0,0,0,.62.61.58.58,0,0,0,.61-.61V58.19A.59.59,0,0,0,32.28,57.57Z"/></g></g></svg>