<svg xmlns="http://www.w3.org/2000/svg" xmlns:xlink="http://www.w3.org/1999/xlink" viewBox="0 0 125.24 125.24"><defs><style>.cls-1{fill:#001d7e;}.cls-2{fill:url(#Degradado_sin_nombre_3);}.cls-3{fill:url(#Degradado_sin_nombre_3-2);}.cls-4{fill:url(#Degradado_sin_nombre_3-3);}.cls-5{fill:url(#Degradado_sin_nombre_3-4);}.cls-6{fill:url(#Degradado_sin_nombre_3-5);}.cls-7{fill:url(#Degradado_sin_nombre_3-6);}.cls-8{fill:url(#Degradado_sin_nombre_3-7);}.cls-9{fill:url(#Degradado_sin_nombre_3-8);}.cls-10{fill:url(#Degradado_sin_nombre_3-9);}.cls-11{fill:url(#Degradado_sin_nombre_3-10);}.cls-12{fill:url(#Degradado_sin_nombre_3-11);}.cls-13{fill:url(#Degradado_sin_nombre_3-12);}.cls-14{fill:url(#Degradado_sin_nombre_3-13);}.cls-15{fill:url(#Degradado_sin_nombre_3-14);}.cls-16{fill:url(#Degradado_sin_nombre_3-15);}.cls-17{fill:url(#Degradado_sin_nombre_3-16);}.cls-18{fill:url(#Degradado_sin_nombre_3-17);}.cls-19{fill:url(#Degradado_sin_nombre_3-18);}.cls-20{fill:url(#Degradado_sin_nombre_3-19);}.cls-21{fill:url(#Degradado_sin_nombre_3-20);}.cls-22{fill:url(#Degradado_sin_nombre_3-21);}.cls-23{fill:url(#Degradado_sin_nombre_3-22);}.cls-24{fill:url(#Degradado_sin_nombre_3-23);}.cls-25{fill:url(#Degradado_sin_nombre_3-24);}.cls-26{fill:url(#Degradado_sin_nombre_3-25);}.cls-27{fill:url(#Degradado_sin_nombre_3-26);}.cls-28{fill:url(#Degradado_sin_nombre_3-27);}.cls-29{fill:url(#Degradado_sin_nombre_3-28);}.cls-30{fill:url(#Degradado_sin_nombre_3-29);}.cls-31{fill:url(#Degradado_sin_nombre_3-30);}.cls-32{fill:url(#Degradado_sin_nombre_3-31);}.cls-33{fill:url(#Degradado_sin_nombre_3-32);}.cls-34{fill:url(#Degradado_sin_nombre_3-33);}.cls-35{fill:url(#Degradado_sin_nombre_3-34);}.cls-36{fill:url(#Degradado_sin_nombre_3-35);}.cls-37{fill:url(#Degradado_sin_nombre_3-36);}.cls-38{fill:url(#Degradado_sin_nombre_3-37);}.cls-39{fill:url(#Degradado_sin_nombre_3-38);}.cls-40{fill:url(#Degradado_sin_nombre_3-39);}.cls-41{fill:url(#Degradado_sin_nombre_3-40);}.cls-42{fill:url(#Degradado_sin_nombre_3-41);}</style><linearGradient id="Degradado_sin_nombre_3" x1="99.6" y1="15.2" x2="11.6" y2="70.05" gradientUnits="userSpaceOnUse"><stop offset="0" stop-color="#fff33b"/><stop offset="0.01" stop-color="#fee72e"/><stop offset="0.04" stop-color="#fed51b"/><stop offset="0.07" stop-color="#fdca10"/><stop offset="0.1" stop-color="#fdc70c"/><stop offset="0.4" stop-color="#f3903f"/><stop offset="0.8" stop-color="#ed683c"/><stop offset="1" stop-color="#e93e3a"/></linearGradient><linearGradient id="Degradado_sin_nombre_3-2" x1="111.7" y1="34.6" x2="23.7" y2="89.46" xlink:href="#Degradado_sin_nombre_3"/><linearGradient id="Degradado_sin_nombre_3-3" x1="120.51" y1="48.74" x2="32.51" y2="103.6" xlink:href="#Degradado_sin_nombre_3"/><linearGradient id="Degradado_sin_nombre_3-4" x1="114.68" y1="39.38" x2="26.68" y2="94.24" xlink:href="#Degradado_sin_nombre_3"/><linearGradient id="Degradado_sin_nombre_3-5" x1="115.68" y1="41" x2="27.68" y2="95.85" xlink:href="#Degradado_sin_nombre_3"/><linearGradient id="Degradado_sin_nombre_3-6" x1="116.68" y1="42.61" x2="28.69" y2="97.46" xlink:href="#Degradado_sin_nombre_3"/><linearGradient id="Degradado_sin_nombre_3-7" x1="117.69" y1="44.22" x2="29.69" y2="99.07" xlink:href="#Degradado_sin_nombre_3"/><linearGradient id="Degradado_sin_nombre_3-8" x1="118.69" y1="45.83" x2="30.69" y2="100.68" xlink:href="#Degradado_sin_nombre_3"/><linearGradient id="Degradado_sin_nombre_3-9" x1="119.7" y1="47.44" x2="31.7" y2="102.29" xlink:href="#Degradado_sin_nombre_3"/><linearGradient id="Degradado_sin_nombre_3-10" x1="120.7" y1="49.04" x2="32.7" y2="103.9" xlink:href="#Degradado_sin_nombre_3"/><linearGradient id="Degradado_sin_nombre_3-11" x1="121.7" y1="50.66" x2="33.71" y2="105.51" xlink:href="#Degradado_sin_nombre_3"/><linearGradient id="Degradado_sin_nombre_3-12" x1="122.71" y1="52.27" x2="34.71" y2="107.12" xlink:href="#Degradado_sin_nombre_3"/><linearGradient id="Degradado_sin_nombre_3-13" x1="124.25" y1="54.75" x2="36.26" y2="109.6" xlink:href="#Degradado_sin_nombre_3"/><linearGradient id="Degradado_sin_nombre_3-14" x1="106.6" y1="26.43" x2="18.61" y2="81.29" xlink:href="#Degradado_sin_nombre_3"/><linearGradient id="Degradado_sin_nombre_3-15" x1="105.6" y1="24.82" x2="17.6" y2="79.68" xlink:href="#Degradado_sin_nombre_3"/><linearGradient id="Degradado_sin_nombre_3-16" x1="104.6" y1="23.21" x2="16.6" y2="78.07" xlink:href="#Degradado_sin_nombre_3"/><linearGradient id="Degradado_sin_nombre_3-17" x1="103.59" y1="21.6" x2="15.6" y2="76.46" xlink:href="#Degradado_sin_nombre_3"/><linearGradient id="Degradado_sin_nombre_3-18" x1="102.59" y1="19.99" x2="14.59" y2="74.85" xlink:href="#Degradado_sin_nombre_3"/><linearGradient id="Degradado_sin_nombre_3-19" x1="101.59" y1="18.38" x2="13.59" y2="73.24" xlink:href="#Degradado_sin_nombre_3"/><linearGradient id="Degradado_sin_nombre_3-20" x1="100.58" y1="16.77" x2="12.58" y2="71.62" xlink:href="#Degradado_sin_nombre_3"/><linearGradient id="Degradado_sin_nombre_3-21" x1="98.37" y1="13.23" x2="10.38" y2="68.08" xlink:href="#Degradado_sin_nombre_3"/><linearGradient id="Degradado_sin_nombre_3-22" x1="107.26" y1="27.49" x2="19.27" y2="82.35" xlink:href="#Degradado_sin_nombre_3"/><linearGradient id="Degradado_sin_nombre_3-23" x1="96.83" y1="10.75" x2="8.83" y2="65.6" xlink:href="#Degradado_sin_nombre_3"/><linearGradient id="Degradado_sin_nombre_3-24" x1="99.24" y1="14.62" x2="11.24" y2="69.47" xlink:href="#Degradado_sin_nombre_3"/><linearGradient id="Degradado_sin_nombre_3-25" x1="100.85" y1="17.21" x2="12.85" y2="72.06" xlink:href="#Degradado_sin_nombre_3"/><linearGradient id="Degradado_sin_nombre_3-26" x1="102.46" y1="19.79" x2="14.46" y2="74.64" xlink:href="#Degradado_sin_nombre_3"/><linearGradient id="Degradado_sin_nombre_3-27" x1="104.07" y1="22.37" x2="16.08" y2="77.22" xlink:href="#Degradado_sin_nombre_3"/><linearGradient id="Degradado_sin_nombre_3-28" x1="105.68" y1="24.96" x2="17.69" y2="79.81" xlink:href="#Degradado_sin_nombre_3"/><linearGradient id="Degradado_sin_nombre_3-29" x1="107.29" y1="27.54" x2="19.3" y2="82.39" xlink:href="#Degradado_sin_nombre_3"/><linearGradient id="Degradado_sin_nombre_3-30" x1="108.9" y1="30.12" x2="20.91" y2="84.97" xlink:href="#Degradado_sin_nombre_3"/><linearGradient id="Degradado_sin_nombre_3-31" x1="110.51" y1="32.71" x2="22.52" y2="87.56" xlink:href="#Degradado_sin_nombre_3"/><linearGradient id="Degradado_sin_nombre_3-32" x1="112.12" y1="35.29" x2="24.13" y2="90.14" xlink:href="#Degradado_sin_nombre_3"/><linearGradient id="Degradado_sin_nombre_3-33" x1="108.96" y1="30.21" x2="20.96" y2="85.06" xlink:href="#Degradado_sin_nombre_3"/><linearGradient id="Degradado_sin_nombre_3-34" x1="110.57" y1="32.79" x2="22.57" y2="87.64" xlink:href="#Degradado_sin_nombre_3"/><linearGradient id="Degradado_sin_nombre_3-35" x1="112.18" y1="35.38" x2="24.18" y2="90.23" xlink:href="#Degradado_sin_nombre_3"/><linearGradient id="Degradado_sin_nombre_3-36" x1="113.79" y1="37.96" x2="25.79" y2="92.81" xlink:href="#Degradado_sin_nombre_3"/><linearGradient id="Degradado_sin_nombre_3-37" x1="115.4" y1="40.54" x2="27.4" y2="95.39" xlink:href="#Degradado_sin_nombre_3"/><linearGradient id="Degradado_sin_nombre_3-38" x1="117.01" y1="43.13" x2="29.01" y2="97.98" xlink:href="#Degradado_sin_nombre_3"/><linearGradient id="Degradado_sin_nombre_3-39" x1="118.62" y1="45.71" x2="30.62" y2="100.56" xlink:href="#Degradado_sin_nombre_3"/><linearGradient id="Degradado_sin_nombre_3-40" x1="122.16" y1="51.39" x2="34.16" y2="106.24" xlink:href="#Degradado_sin_nombre_3"/><linearGradient id="Degradado_sin_nombre_3-41" x1="113.82" y1="38" x2="25.82" y2="92.85" xlink:href="#Degradado_sin_nombre_3"/></defs><title>btn-card-1</title><g id="Capa_2" data-name="Capa 2"><g id="Capa_1-2" data-name="Capa 1"><rect class="cls-1" width="125.24" height="125.24"/><path class="cls-2" d="M51.14,49.84A.81.81,0,0,0,52,49V45.53h.59a.85.85,0,0,0,0-1.7H52v-2a.85.85,0,1,0-1.7,0V49A.81.81,0,0,0,51.14,49.84Z"/><path class="cls-3" d="M72.66,75a.81.81,0,0,0,.85-.85V62.75h2a1.08,1.08,0,0,0,.83-.49l0,0a1,1,0,0,0-.26-.92L65.29,51.62a5,5,0,0,0-6.7,0L47.75,61.31a1,1,0,0,0-.25.92.85.85,0,0,0,.77.52h2V74.1a.81.81,0,0,0,.85.85ZM51.14,61.05h-.66l9.21-8.23a3.37,3.37,0,0,1,4.42,0l9.21,8.23h-.66a.81.81,0,0,0-.85.85V73.25H52V61.9A.81.81,0,0,0,51.14,61.05Z"/><path class="cls-4" d="M83.42,73.25h-2v-.59a.85.85,0,1,0-1.7,0v.59H76.25a.85.85,0,0,0,0,1.7h7.17a.85.85,0,0,0,0-1.7Z"/><path class="cls-5" d="M49,79.7h-.72a.85.85,0,0,0,0,1.7H49a.85.85,0,1,0,0-1.7Z"/><path class="cls-6" d="M52.58,79.7h-.72a.85.85,0,1,0,0,1.7h.72a.85.85,0,0,0,.61-.23.89.89,0,0,0,.24-.62A.81.81,0,0,0,52.58,79.7Z"/><path class="cls-7" d="M56.16,79.7h-.71a.85.85,0,1,0,0,1.7h.71a.85.85,0,1,0,0-1.7Z"/><path class="cls-8" d="M59.75,79.7H59a.85.85,0,1,0,0,1.7h.72a.85.85,0,1,0,0-1.7Z"/><path class="cls-9" d="M63.34,79.7h-.72a.85.85,0,0,0,0,1.7h.72a.85.85,0,1,0,0-1.7Z"/><path class="cls-10" d="M66.92,79.7h-.71a.85.85,0,0,0,0,1.7h.71a.85.85,0,0,0,0-1.7Z"/><path class="cls-11" d="M70.51,79.7h-.72a.85.85,0,0,0,0,1.7h.72a.85.85,0,0,0,0-1.7Z"/><path class="cls-12" d="M74.1,79.7h-.72a.85.85,0,0,0,0,1.7h.72a.85.85,0,0,0,0-1.7Z"/><path class="cls-13" d="M77.68,79.7H77a.85.85,0,0,0,0,1.7h.71a.85.85,0,0,0,0-1.7Z"/><path class="cls-14" d="M83.42,79.7H80.55a.81.81,0,0,0-.85.85v2.87a.81.81,0,0,0,.85.85.79.79,0,0,0,.85-.85v-2h2a.85.85,0,1,0,0-1.7Z"/><path class="cls-15" d="M77,45.53h.71a.85.85,0,1,0,0-1.7H77a.85.85,0,0,0,0,1.7Z"/><path class="cls-16" d="M73.38,45.53h.72a.85.85,0,0,0,0-1.7h-.72a.85.85,0,0,0,0,1.7Z"/><path class="cls-17" d="M69.79,45.53h.72a.85.85,0,1,0,0-1.7h-.72a.85.85,0,1,0,0,1.7Z"/><path class="cls-18" d="M66.21,45.53h.71a.85.85,0,1,0,0-1.7h-.71a.85.85,0,0,0,0,1.7Z"/><path class="cls-19" d="M62.62,45.53h.72a.85.85,0,1,0,0-1.7h-.72a.85.85,0,0,0,0,1.7Z"/><path class="cls-20" d="M59,45.53h.72a.85.85,0,0,0,0-1.7H59a.85.85,0,0,0,0,1.7Z"/><path class="cls-21" d="M55.45,45.53h.71a.85.85,0,0,0,0-1.7h-.71a.85.85,0,0,0,0,1.7Z"/><path class="cls-22" d="M48.27,45.53a.85.85,0,1,0,0-1.7h-.72a.85.85,0,0,0,0,1.7Z"/><path class="cls-23" d="M80.55,45.53h2.87a.85.85,0,1,0,0-1.7h-2v-2a.85.85,0,1,0-1.7,0v2.86A.81.81,0,0,0,80.55,45.53Z"/><path class="cls-24" d="M44.68,41a.81.81,0,0,0-.85.85v2h-2a.85.85,0,0,0,0,1.7h2.87a.81.81,0,0,0,.85-.85V41.82A.81.81,0,0,0,44.68,41Z"/><path class="cls-25" d="M44.68,47.42a.81.81,0,0,0-.85.85V49a.85.85,0,0,0,1.7,0v-.72A.81.81,0,0,0,44.68,47.42Z"/><path class="cls-26" d="M44.68,51a.81.81,0,0,0-.85.85v.72a.85.85,0,0,0,1.7,0v-.72A.81.81,0,0,0,44.68,51Z"/><path class="cls-27" d="M44.68,54.6a.81.81,0,0,0-.85.85v.71a.85.85,0,0,0,1.7,0v-.71A.81.81,0,0,0,44.68,54.6Z"/><path class="cls-28" d="M44.68,58.18a.81.81,0,0,0-.85.85v.72a.85.85,0,0,0,1.7,0V59A.81.81,0,0,0,44.68,58.18Z"/><path class="cls-29" d="M44.68,61.77a.81.81,0,0,0-.85.85v.72a.85.85,0,0,0,1.7,0v-.72A.81.81,0,0,0,44.68,61.77Z"/><path class="cls-30" d="M44.68,65.36a.81.81,0,0,0-.85.85v.71a.85.85,0,0,0,1.7,0v-.71A.81.81,0,0,0,44.68,65.36Z"/><path class="cls-31" d="M44.68,68.94a.81.81,0,0,0-.85.85v.72a.85.85,0,0,0,1.7,0v-.72A.81.81,0,0,0,44.68,68.94Z"/><path class="cls-32" d="M44.68,72.53a.81.81,0,0,0-.85.85v.72a.85.85,0,1,0,1.7,0v-.72A.81.81,0,0,0,44.68,72.53Z"/><path class="cls-33" d="M44.68,76.12a.81.81,0,0,0-.85.85v.71a.85.85,0,0,0,1.7,0V77A.81.81,0,0,0,44.68,76.12Z"/><path class="cls-34" d="M80.55,49.12a.81.81,0,0,0,.85-.85v-.72a.85.85,0,0,0-1.7,0v.72A.81.81,0,0,0,80.55,49.12Z"/><path class="cls-35" d="M80.55,52.71a.81.81,0,0,0,.85-.85v-.72a.85.85,0,0,0-1.7,0v.72A.81.81,0,0,0,80.55,52.71Z"/><path class="cls-36" d="M80.55,56.3a.89.89,0,0,0,.62-.24.87.87,0,0,0,.23-.61v-.72a.85.85,0,1,0-1.7,0v.72A.81.81,0,0,0,80.55,56.3Z"/><path class="cls-37" d="M80.55,59.88A.79.79,0,0,0,81.4,59v-.72a.85.85,0,0,0-1.7,0V59A.81.81,0,0,0,80.55,59.88Z"/><path class="cls-38" d="M80.55,63.47a.81.81,0,0,0,.85-.85V61.9a.85.85,0,0,0-1.7,0v.72A.81.81,0,0,0,80.55,63.47Z"/><path class="cls-39" d="M80.55,67.06a.89.89,0,0,0,.62-.24.87.87,0,0,0,.23-.61v-.72a.85.85,0,1,0-1.7,0v.72A.81.81,0,0,0,80.55,67.06Z"/><path class="cls-40" d="M80.55,70.64a.79.79,0,0,0,.85-.85v-.71a.85.85,0,1,0-1.7,0v.71A.81.81,0,0,0,80.55,70.64Z"/><path class="cls-41" d="M80.55,78.53a.79.79,0,0,0,.85-.85V77a.85.85,0,1,0-1.7,0v.71A.81.81,0,0,0,80.55,78.53Z"/><path class="cls-42" d="M44.68,79.7H41.81a.85.85,0,0,0,0,1.7h2v2a.85.85,0,0,0,1.7,0V80.55A.81.81,0,0,0,44.68,79.7Z"/></g></g></svg>