<svg xmlns="http://www.w3.org/2000/svg" xmlns:xlink="http://www.w3.org/1999/xlink" viewBox="0 0 140 140"><defs><style>.cls-1{fill:#001780;}.cls-2{fill:url(#Degradado_sin_nombre_3);}.cls-3{fill:url(#Degradado_sin_nombre_3-2);}.cls-4{fill:url(#Degradado_sin_nombre_3-3);}.cls-5{fill:url(#Degradado_sin_nombre_3-4);}.cls-6{fill:url(#Degradado_sin_nombre_3-5);}.cls-7{fill:url(#Degradado_sin_nombre_3-6);}</style><linearGradient id="Degradado_sin_nombre_3" x1="28.36" y1="98.96" x2="118.61" y2="37.71" gradientUnits="userSpaceOnUse"><stop offset="0" stop-color="#fff20a"/><stop offset="0.01" stop-color="#ffe700"/><stop offset="0.04" stop-color="#ffd500"/><stop offset="0.07" stop-color="#ffca00"/><stop offset="0.1" stop-color="#ffc700"/><stop offset="0.4" stop-color="#ff9035"/><stop offset="0.8" stop-color="#ff6836"/><stop offset="1" stop-color="#ff3c37"/></linearGradient><linearGradient id="Degradado_sin_nombre_3-2" x1="28.37" y1="88.64" x2="108.67" y2="34.14" xlink:href="#Degradado_sin_nombre_3"/><linearGradient id="Degradado_sin_nombre_3-3" x1="32.17" y1="96.55" x2="112.47" y2="42.05" xlink:href="#Degradado_sin_nombre_3"/><linearGradient id="Degradado_sin_nombre_3-4" x1="30.83" y1="94.22" x2="111.13" y2="39.72" xlink:href="#Degradado_sin_nombre_3"/><linearGradient id="Degradado_sin_nombre_3-5" x1="32.1" y1="95.56" x2="112.39" y2="41.06" xlink:href="#Degradado_sin_nombre_3"/><linearGradient id="Degradado_sin_nombre_3-6" x1="30.01" y1="100.05" x2="118.99" y2="39.66" xlink:href="#Degradado_sin_nombre_3"/></defs><title>1_Planeción</title><g id="Capa_1" data-name="Capa 1"><polyline class="cls-1" points="0.3 -0.12 140.42 -0.12 140.42 140 0.3 140"/><path class="cls-2" d="M50.06,94H53.3a.81.81,0,0,0,.81-.81V89.13H90.62a4.06,4.06,0,0,0,4.06-4V49.38a4.08,4.08,0,0,0-4.06-4.06H86.56a.82.82,0,0,0-.81.82v5.67H50.06A4.07,4.07,0,0,0,46,55.87V89.94A4.06,4.06,0,0,0,50.06,94Zm2.43-1.62H50.06a2.44,2.44,0,0,1-2.44-2.44V59.11a4.05,4.05,0,0,0,2.44.82h2.43ZM87.37,47h3.25a2.43,2.43,0,0,1,0,4.86H87.37ZM50.06,53.44H90.62a4,4,0,0,0,2.43-.82V85.08a2.43,2.43,0,0,1-2.43,2.43H54.11V59.12a.82.82,0,0,0-.81-.82H50.06a2.43,2.43,0,1,1,0-4.86Z"/><path class="cls-3" d="M66.6,61.55h1a.32.32,0,0,1,.32.32v1a.32.32,0,0,1-.32.32h-1a.32.32,0,0,1-.32-.32v-1A.32.32,0,0,1,66.6,61.55Z"/><path class="cls-4" d="M61.73,75.34h1a.32.32,0,0,1,.32.32v1a.32.32,0,0,1-.32.32h-1a.32.32,0,0,1-.32-.32v-1A.32.32,0,0,1,61.73,75.34Z"/><path class="cls-5" d="M61.73,72.1h1a.32.32,0,0,1,.32.32v1a.32.32,0,0,1-.32.32h-1a.32.32,0,0,1-.32-.32v-1A.32.32,0,0,1,61.73,72.1Z"/><path class="cls-6" d="M65,72.1h1a.32.32,0,0,1,.32.32v1a.32.32,0,0,1-.32.32H65a.32.32,0,0,1-.32-.32v-1A.32.32,0,0,1,65,72.1Z"/><path class="cls-7" d="M59,85.08H59a.78.78,0,0,0,.78-.78V83.08a.44.44,0,0,1,.44-.44h7.71a.78.78,0,0,0,.78-.78V81.8a.78.78,0,0,0-.78-.78H60.23a.44.44,0,0,1-.44-.44V70.91a.44.44,0,0,1,.44-.44h8.86a.44.44,0,0,1,.44.44v1.22a.78.78,0,0,0,.78.78h.06a.78.78,0,0,0,.78-.78V68a.78.78,0,0,0-.78-.78h-.06a.78.78,0,0,0-.78.78v.06a.78.78,0,0,1-.78.78H64.29a.44.44,0,0,1-.44-.44v-8a.43.43,0,0,1,.44-.44h4.8a.44.44,0,0,1,.44.44V64a.77.77,0,0,0,.78.77h.06a.77.77,0,0,0,.78-.77V60.37a.44.44,0,0,1,.44-.44h1.55a.43.43,0,0,1,.44.44V67.6a1.25,1.25,0,0,0,1.25,1.25h1.56a.44.44,0,0,1,.44.44v1.56a.44.44,0,0,1-.44.43h-2a.78.78,0,0,0-.78.78v.07a.78.78,0,0,0,.78.78H77.2a1.25,1.25,0,0,0,1.25-1.25V68.48a1.25,1.25,0,0,0-1.25-1.25H75.64a.44.44,0,0,1-.43-.44V60.37a.43.43,0,0,1,.43-.44H86.93a.43.43,0,0,1,.44.44V80.58a.44.44,0,0,1-.44.44H77.54a.44.44,0,0,1-.38-.21l-2.07-3.45A.8.8,0,0,0,74,77.08l0,0-.4.27a5.36,5.36,0,0,0-2.36,3.86,1.26,1.26,0,0,0,1.24,1.41H86.93a.44.44,0,0,1,.44.44V84.3a.78.78,0,0,0,.78.78h.07A.78.78,0,0,0,89,84.3V83.08a.44.44,0,0,1,.44-.44h1.21a.78.78,0,0,0,.78-.78V81.8a.78.78,0,0,0-.78-.78H89.44a.44.44,0,0,1-.44-.44V60.37a.43.43,0,0,1,.44-.44h1.21a.78.78,0,0,0,.78-.78v-.07a.78.78,0,0,0-.78-.78H89.44a.43.43,0,0,1-.44-.44V56.65a.78.78,0,0,0-.78-.78h-.07a.78.78,0,0,0-.78.78v1.21a.43.43,0,0,1-.44.44H60.23a.44.44,0,0,1-.44-.44V56.65a.78.78,0,0,0-.78-.78H59a.78.78,0,0,0-.78.78v1.21a.44.44,0,0,1-.44.44H56.51a.77.77,0,0,0-.77.78v.07a.77.77,0,0,0,.77.78h1.22a.44.44,0,0,1,.44.44V80.58a.44.44,0,0,1-.44.44H56.51a.77.77,0,0,0-.77.78v.06a.77.77,0,0,0,.77.78h1.22a.44.44,0,0,1,.44.44V84.3A.78.78,0,0,0,59,85.08Zm14.38-5.21a.35.35,0,0,1,0-.08.78.78,0,0,1,1.31,0h0A.78.78,0,0,1,74,81h0A.77.77,0,0,1,73.33,79.87Zm-11.54-11H60.23a.44.44,0,0,1-.44-.44v-8a.44.44,0,0,1,.44-.44h1.56a.44.44,0,0,1,.44.44v8A.44.44,0,0,1,61.79,68.85Z"/></g></svg>