<svg xmlns="http://www.w3.org/2000/svg" viewBox="0 0 1314.41 348.61"><defs><style>.cls-1{fill:none;stroke:#001d7e;stroke-miterlimit:10;}.cls-2{font-size:13.92px;fill:#001d7e;font-family:CenturyGothic-Bold, Century Gothic;font-weight:700;letter-spacing:0.05em;}</style></defs><title>contact_bg</title><g id="Capa_2" data-name="Capa 2"><g id="Capa_1-2" data-name="Capa 1"><path class="cls-1" d="M812,45,742.63,72.87v31.68l72.84-24.91V33.07c-111.29,38.45-168.14,83.59-168.14,83.59V147.6l31.4-16.51V108.61l-16,9.48v17.33"/><polyline class="cls-1" points="732.99 108.88 685.5 128.38 685.5 91.69"/><polyline class="cls-1" points="702.3 121.48 701.2 93.72 732.99 79.64 732.99 66.68"/><polyline class="cls-1" points="1216.93 322.52 989.43 339.23 989.43 258.51 1018.51 254.29 1018.51 332.28 1023.2 332.07 1023.2 252.41 1055.57 250.06"/><path class="cls-1" d="M936.89,256.16l-86.51,4.63v76l-30.76-.69V260.79L628.85,277.48V116.4S688.73,44,827.75.68V246.3h12.08V.68L942.58,30.12v9.81l-92.2,25.22V95.37l92.2-25.18V341.34l21.16.08V35.94l80.17,21.15v9.07l-53,19.14v27.2l73.53-25.19V60.11l194.42,54.4v22.16l-178.3-42.31v53.39L1258.89,180v22.16l-189.7-30.22v54.4l189.7,15.11v24.17l-189.7-9.06v70.76l-8.75.83V213.23L977.84,222l1,30.52,12.09-1V131.64l63.46-14.11v25.28L642.19,218.49l-10.7,7.44"/><polyline class="cls-1" points="868.45 259.82 868.45 337.17 893.26 337.85 893.26 268.83 938.16 271.19 938.16 341.42 931.02 340.89 930.23 275.95 910.65 275.42 911.21 339.23 898.66 338.19"/><polyline class="cls-1" points="1173.32 323.66 1173.32 261.52 1160.64 260.92 1160.64 310.11 1073.86 316.49 1073.86 326.46 1163.63 319.19"/><polyline class="cls-1" points="816.7 107.82 741.99 130.25 741.99 172.13 816.7 155.38 815.47 116.19 759.27 131.75 759.27 168.26"/><polyline class="cls-1" points="700.11 183.66 699.74 152.39 733.86 139.97 733.86 132.05 685.5 151.19 685.5 187.99 732.99 173.93 732.99 147.6"/><polyline class="cls-1" points="678.28 153.41 647.33 167.59 647.33 200.01 678.28 190.24 678.28 162.05 660.8 170.7 660.8 193.24"/><polyline class="cls-1" points="628.85 210.34 642.96 202.82 643.89 169.76 629.8 179.9 641.64 181.41"/><polyline class="cls-1" points="684.31 210.75 684.31 247.62 732.99 239.67 732.99 208.08 699.6 214.6 699.6 241.71"/><polyline class="cls-1" points="678.28 217.45 678.28 247.62 647.33 253.12 645.99 222.75 659.65 220.92 659.65 246.3"/><polyline class="cls-1" points="816.7 192.38 816.7 232.33 741.99 240.89 741.99 204.41 759.27 201.35 759.27 235.29"/><line class="cls-1" x1="1250.47" y1="200.81" x2="1250.47" y2="240.77"/><line class="cls-1" x1="1250.47" y1="178.47" x2="1250.47" y2="134.67"/><polyline class="cls-1" points="1246.06 265 1246.06 303.87 1232.66 303.87 1228.85 310.55 1218.35 312.82 1217.51 318.9 1216.08 318.9 1216.08 322.5 1244.71 322.96 1244.71 313.89 1254.49 311.38 1257.24 304.7 1270.72 304.7 1268.21 311.26 1258.19 313.53 1258.19 322.96 1287.66 322.96 1287.66 314.72 1297.8 311.98 1301.14 304.82 1272.75 304.82 1270.24 311.03 1295.18 311.03"/><line class="cls-1" x1="1261.18" y1="314.72" x2="1287.66" y2="314.72"/><ellipse class="cls-1" cx="1251.34" cy="320.98" rx="3.61" ry="4.49"/><ellipse class="cls-1" cx="1297.17" cy="320.98" rx="3.61" ry="4.49"/><ellipse class="cls-1" cx="1309.53" cy="318.12" rx="3.61" ry="4.49"/><line class="cls-1" x1="1244.71" y1="313.89" x2="1221.01" y2="313.89"/><polyline class="cls-1" points="943.87 222.89 848.22 229.9 848.22 185.45 873.87 188.01 873.87 228.02"/><polyline class="cls-1" points="895.26 226.45 895.26 189.9 942.58 194.51"/><polyline class="cls-1" points="995.71 165.39 1059.94 150.2 1013.79 155.18 1013.79 212.97"/><line class="cls-1" x1="1214.73" y1="265" x2="1214.73" y2="322.51"/><polyline class="cls-1" points="942.58 97.22 894.23 116.9 941.36 125.82 941.36 132.05 895.26 141.38 895.26 121.48"/><polygon class="cls-1" points="849.39 107.82 875.24 112.55 875.24 143.89 849.39 150.2 849.39 107.82"/><line class="cls-1" x1="895.26" y1="141.38" x2="816.7" y2="155.38"/><polyline class="cls-1" points="850.38 65.15 850.38 31.56 876.62 38.42 876.62 63.36 867.69 65.15 867.46 43 852.36 38.88"/><polyline class="cls-1" points="1021.72 206.29 1021.72 31.56 1056.15 22.32 1056.15 46.2 1023.98 54.24"/><polyline class="cls-1" points="1228.96 328.62 962.58 348.11 642.29 336.78 642.29 276.3"/><polyline class="cls-1" points="1148.49 265 1148.49 305.18 1127.32 306.64 1127.32 265 1103.18 265 1103.18 308.47 1079.97 310.1 1079.97 263.51"/><text class="cls-2" transform="matrix(0.87, 0.23, -0.03, 1, 1183.57, 111.77)">BETANZOS</text><polyline class="cls-1" points="1287.66 322.96 1313.91 316.49 1313.91 311.44 1308.27 304.31 1301.14 304.82"/><line class="cls-1" x1="1059.94" y1="203.08" x2="1059.94" y2="59.85"/><polyline class="cls-1" points="647.33 278.37 647.33 331.02 815.47 336.14 815.47 267.2 650.83 280.76 650.8 304.82 810.55 299.11"/><path class="cls-1" d="M621.63,196.12,611.17,188v4.07l-7.76.33-2.72,3.74s-9.65-2.39-12,0-8.93,9.42-8.93,9.42-5.43-4.44-5.43,2.63v7.08s-6.21,3.88-6.21,6.21,1.55,8.44,1.55,8.44-7.23,4.27-7.23,7.23,2.18,10.49,2.18,10.49l4.2,4.19s-6.06,8-3,8S572,263,572,263v4.2s5,8.13,8.13,8.13S592,278.26,592,278.26h8.29l4.66-2,5,2s7.76,36-2.33,54.62H592l-5.43,3.26-8.43-2.79h-70L457.51,330l-43.94,3.38-31.13,4.43-40.89-4.43-29.81-3.15-56.25,3.15-44.56-2.07-59.81,4.2L95.3,333.35H0"/></g></g></svg>