<svg xmlns="http://www.w3.org/2000/svg" viewBox="0 0 724 97.46"><defs><style>.cls-1{fill:#fff;}</style></defs><title>logo-betanzos-footer</title><g id="Capa_2" data-name="Capa 2"><g id="Capa_1-2" data-name="Capa 1"><path class="cls-1" d="M171.86,90.26h-7.75l-2.35,6.32h-1.2l6.84-18.27h1.2l6.84,18.27h-1.2ZM168,79.61s-.39,1.41-.68,2.19l-2.79,7.42h7L168.7,81.8c-.28-.78-.67-2.19-.67-2.19Z"/><path class="cls-1" d="M189.17,78.31h5.35a7,7,0,0,1,3.29.54,4.68,4.68,0,0,1,2.53,4.39,4.87,4.87,0,0,1-3.65,5v0a4.12,4.12,0,0,1,.42.65l4.1,7.6h-1.34l-4.33-8.1H190.3v8.1h-1.13Zm6.08,9.13c2.41,0,3.92-1.72,3.92-4.2A3.7,3.7,0,0,0,197,79.72a5.67,5.67,0,0,0-2.56-.37H190.3v8.09Z"/><path class="cls-1" d="M223.76,78a9.22,9.22,0,0,1,9.29,9.35,9.84,9.84,0,0,1-2.4,6.5L233,96.26l-.73.71L230,94.57a9.14,9.14,0,0,1-6.19,2.32,9.35,9.35,0,0,1-9.18-9.55A9.18,9.18,0,0,1,223.76,78Zm0,17.83a8.3,8.3,0,0,0,5.43-2l-2.35-2.42.73-.71,2.33,2.4a9.12,9.12,0,0,0,2-5.71,8.07,8.07,0,1,0-16.13,0A8.16,8.16,0,0,0,223.76,95.82Z"/><path class="cls-1" d="M247.91,78.31H249v12c0,3.44,2.24,5.56,5.69,5.56s5.71-2.12,5.71-5.61V78.31h1.12v12c0,4-2.79,6.58-6.81,6.58s-6.84-2.56-6.84-6.58Z"/><path class="cls-1" d="M277.39,78.31h1.12V96.58h-1.12Z"/><path class="cls-1" d="M298.8,79.35H292v-1h14.75v1h-6.81V96.58H298.8Z"/><path class="cls-1" d="M320.2,78.31h10v1h-8.87v7.49h7.28v1h-7.28v7.65h9.37v1H320.2Z"/><path class="cls-1" d="M353.2,78a9.3,9.3,0,0,1,6.53,2.3l-.68.83a8.93,8.93,0,0,0-5.82-2.06,7.91,7.91,0,0,0-7.91,8.25c0,4.75,3.39,8.51,8,8.51a8.83,8.83,0,0,0,6.18-2.48l.71.78a9.64,9.64,0,0,1-6.89,2.77c-5.33,0-9.16-4.28-9.16-9.58A9,9,0,0,1,353.2,78Z"/><path class="cls-1" d="M379.18,79.35h-6.81v-1h14.74v1H380.3V96.58h-1.12Z"/><path class="cls-1" d="M400.33,78.31h1.12v12c0,3.44,2.25,5.56,5.69,5.56s5.72-2.12,5.72-5.61V78.31H414v12c0,4-2.79,6.58-6.81,6.58s-6.84-2.56-6.84-6.58Z"/><path class="cls-1" d="M429.8,78.31h5.35a7,7,0,0,1,3.29.54A4.68,4.68,0,0,1,441,83.24a4.87,4.87,0,0,1-3.65,5v0a4.12,4.12,0,0,1,.42.65l4.1,7.6H440.5l-4.33-8.1h-5.24v8.1H429.8Zm6.09,9.13c2.4,0,3.91-1.72,3.91-4.2a3.7,3.7,0,0,0-2.14-3.52,5.67,5.67,0,0,0-2.56-.37h-4.17v8.09Z"/><path class="cls-1" d="M465.41,90.26h-7.75l-2.35,6.32h-1.2L461,78.31h1.2L469,96.58h-1.2Zm-3.89-10.65s-.39,1.41-.68,2.19l-2.79,7.42h7l-2.77-7.42c-.28-.78-.68-2.19-.68-2.19Z"/><path class="cls-1" d="M500.4,78.31h1.12V96.58H500.4Z"/><path class="cls-1" d="M517.6,78.31h1l10.41,14.32c.6.84,1.49,2.3,1.49,2.3h.05s-.13-1.38-.13-2.3V78.31h1.12V96.58h-1L520.13,82.25c-.6-.84-1.48-2.3-1.48-2.3h-.06s.13,1.38.13,2.3V96.58H517.6Z"/><path class="cls-1" d="M551.88,79.35h-6.81v-1h14.74v1H553V96.58h-1.12Z"/><path class="cls-1" d="M573.29,78.31h10v1h-8.87v7.49h7.28v1h-7.28v7.65h9.37v1H573.29Z"/><path class="cls-1" d="M606.34,78a9.86,9.86,0,0,1,6.37,2.06l-.68.87a9.36,9.36,0,0,0-5.69-1.86c-4.6,0-7.94,3.66-7.94,8.38s3.27,8.38,7.78,8.38a8.55,8.55,0,0,0,6.27-3V89.29h-3.27v-1h4.39v8.33h-1.12V95c0-.39,0-.78,0-.78h-.05a8.4,8.4,0,0,1-6.24,2.69c-5.09,0-8.95-4.15-8.95-9.45A9.17,9.17,0,0,1,606.34,78Z"/><path class="cls-1" d="M628.66,78.31H634a7,7,0,0,1,3.29.54,4.7,4.7,0,0,1,2.53,4.39,4.87,4.87,0,0,1-3.65,5v0a4.12,4.12,0,0,1,.42.65l4.09,7.6h-1.33L635,88.48h-5.25v8.1h-1.12Zm6.08,9.13c2.4,0,3.92-1.72,3.92-4.2a3.7,3.7,0,0,0-2.14-3.52,5.67,5.67,0,0,0-2.56-.37h-4.18v8.09Z"/><path class="cls-1" d="M664.27,90.26h-7.75l-2.35,6.32H653l6.84-18.27H661l6.84,18.27h-1.21Zm-3.89-10.65S660,81,659.7,81.8l-2.79,7.42h7l-2.77-7.42c-.29-.78-.68-2.19-.68-2.19Z"/><path class="cls-1" d="M681.58,78.31h1.12V95.53h8.72v1h-9.84Z"/><circle class="cls-1" cx="719.91" cy="87.44" r="4.03"/><circle class="cls-1" cx="132.07" cy="87.44" r="4.03"/><path class="cls-1" d="M158.29,29.83c1.1-.93,1.82-1.58,2.16-1.94A15,15,0,0,0,165,16.79a15,15,0,0,0-4.64-11q-4.56-4.61-10-4.64H137.07V5.7h12.2a10.87,10.87,0,0,1,7.89,3.24,11,11,0,0,1,3.29,7.89,10.84,10.84,0,0,1-3.25,7.89A10.72,10.72,0,0,1,149.35,28h-.59v4.56h2a11.16,11.16,0,0,1,11.18,11.14,11.08,11.08,0,0,1-11.09,11.22H132.52V1.14H128V59.53h21.85v0q7.56,0,12.11-4.69a15,15,0,0,0,4.56-11.13,15,15,0,0,0-4.6-11.1A40.64,40.64,0,0,0,158.29,29.83Z"/><polygon class="cls-1" points="208.29 1.14 203.75 1.14 203.75 59.53 237.71 59.53 237.71 54.97 208.31 54.97 208.31 32.44 232.02 32.44 232.02 27.89 208.31 27.89 208.29 1.14"/><rect class="cls-1" x="212.85" y="1.14" width="24.86" height="4.56"/><rect class="cls-1" x="270.8" y="1.14" width="17.13" height="4.56"/><polygon class="cls-1" points="292.49 59.53 297.05 59.53 297.05 5.7 318.48 5.7 318.48 1.14 292.49 1.14 292.49 59.53"/><polygon class="cls-1" points="338.75 59.53 343.64 59.53 360.36 18.23 357.92 12.14 338.75 59.53"/><polygon class="cls-1" points="360.39 6.04 382.03 59.53 386.93 59.53 362.83 0 360.39 6.04"/><polygon class="cls-1" points="466.09 47.76 431.81 11.28 431.81 17.94 431.8 17.94 470.65 59.23 470.65 1.14 466.09 1.14 466.09 47.76"/><polygon class="cls-1" points="422.68 1.56 422.68 59.53 427.23 59.53 427.25 6.43 422.68 1.56"/><polygon class="cls-1" points="551.54 1.14 507.28 1.14 507.28 5.7 548.35 5.7 551.54 1.14"/><polygon class="cls-1" points="505.13 59.53 549.35 59.53 549.35 54.97 513.86 54.97 545.16 10.26 539.61 10.26 505.13 59.53"/><path class="cls-1" d="M636.53,8.9A30.21,30.21,0,0,0,617.39.09V4.57a24.88,24.88,0,0,1,16,7.45A25,25,0,0,1,641,30.33a25,25,0,0,1-7.6,18.31,25.89,25.89,0,0,1-36.57,0,25,25,0,0,1-7.6-18.31A25,25,0,0,1,596.83,12a24.87,24.87,0,0,1,16-7.44V.09A30.21,30.21,0,0,0,593.7,8.9a30,30,0,0,0-6.54,9.66,29.64,29.64,0,0,0-2.4,11.77,30.26,30.26,0,0,0,51.77,21.44,29.13,29.13,0,0,0,6.54-9.62,30,30,0,0,0,2.4-11.82,29.64,29.64,0,0,0-2.4-11.77A29.09,29.09,0,0,0,636.53,8.9Z"/><path class="cls-1" d="M720.58,34.64q-5-5.84-15.06-6.53v4.5c5.29.43,9.2,2.08,11.69,5a9.12,9.12,0,0,1,2.28,6.84,11.35,11.35,0,0,1-7,10.12,18.57,18.57,0,0,1-4.77,1.39,11.2,11.2,0,0,1-1.6.21c-.45,0-1,.05-1.6.05a21.05,21.05,0,0,1-10.59-2.62q-5.61-3.16-7.09-8.23l-4.3,1.27q1.93,6.59,8.94,10.63a25.16,25.16,0,0,0,13,3.42h.09a21.28,21.28,0,0,0,12.82-3.84A15.76,15.76,0,0,0,724,44.76,13.41,13.41,0,0,0,720.58,34.64Z"/><path class="cls-1" d="M687,17.17A11.18,11.18,0,0,1,693,7a17.49,17.49,0,0,1,5.11-1.9,19.87,19.87,0,0,1,4.72-.59A17.08,17.08,0,0,1,715.77,10a14.77,14.77,0,0,1,2.49,3.1c.54.94.86,1.51,1,1.71l4.18-1.56a10.5,10.5,0,0,0-.76-1.48,26.53,26.53,0,0,0-3.59-4.89A21.48,21.48,0,0,0,702.82,0a22.4,22.4,0,0,0-14,4.43,15.18,15.18,0,0,0-6.28,12.74,12.11,12.11,0,0,0,4.13,9.49c3.11,2.8,7.89,4.62,14.3,5.49V27.64Q687,25.63,687,17.17Z"/><path class="cls-1" d="M75.34,1.73,74.8.88,0,32.07l.92,2.2,15.33-6.39v48L53.48,97.46l37.27-21.6V54.54l14.25-6ZM23.45,64.37V24.87l2.38-1,.11.18V62.94ZM44,52.56l-15.67,9V27.82Zm57.49-5.1L55.74,66.66,28.13,23.06,73.87,3.85ZM45.27,54.57,46.78,57,18.63,73.14V26.89l2.44-1V68.49Zm2.22,10.72V80L34.74,72.62Zm0,17.47v2.91L29.83,75.44,32.35,74Zm0-20.22L25.06,75.43,49.87,89.8v-28l2.44,3.85V94L19.82,75.2,47.49,59.3ZM77.17,75.41,59.51,85.64V82.73L74.65,74Zm-22.48-6,.12.18,2.32-1V89.78L81.94,75.41,64.69,65.49,68,64.12,87.18,75.18,54.69,94ZM59.51,80V67.66l2.41-1,10.34,5.94ZM76.73,60.43l2-.81v1.93Zm4.33,2.49v-4.3l2.49-1v6.78Zm7.31-7.38V73.11L70.71,63,74,61.59l12,6.88V56.57Z"/><path class="cls-1" d="M89.89,91.55l-.83,1.69h-.41l-.83-1.69v1.94h-.69V90.41h.93l.79,1.69.8-1.69h.93v3.08h-.69Z"/><path class="cls-1" d="M93.85,91.43a.91.91,0,0,1-.59,1l.78,1.1h-.85l-.68-1H92v1h-.69V90.41h1.17a1.72,1.72,0,0,1,1,.24A.94.94,0,0,1,93.85,91.43ZM93,91.8a.5.5,0,0,0,.12-.37.39.39,0,0,0-.13-.34.86.86,0,0,0-.46-.09H92v.91h.5A.75.75,0,0,0,93,91.8Z"/><path class="cls-1" d="M90.58,97.19A5.24,5.24,0,1,1,95.82,92,5.25,5.25,0,0,1,90.58,97.19Zm0-9.52A4.28,4.28,0,1,0,94.86,92,4.28,4.28,0,0,0,90.58,87.67Z"/></g></g></svg>