<?xml version="1.0" encoding="iso-8859-1"?>
<!-- Generator: Adobe Illustrator 19.0.0, SVG Export Plug-In . SVG Version: 6.00 Build 0)  -->
<svg version="1.1" id="Capa_1" xmlns="http://www.w3.org/2000/svg" xmlns:xlink="http://www.w3.org/1999/xlink" x="0px" y="0px"
	 viewBox="0 0 512 512" style="enable-background:new 0 0 512 512;" xml:space="preserve">
<g>
	<g>
		<path d="M507.657,327.699c-10.348-17.919-33.303-24.135-51.278-13.935c-3.268,1.611-45.001,22.121-79.376,36.585
			c-3.839,1.616-5.642,6.038-4.026,9.877c1.615,3.839,6.036,5.641,9.877,4.026c36.049-15.17,79.971-36.849,80.41-37.066
			c0.144-0.071,0.286-0.147,0.425-0.227c10.805-6.23,24.67-2.515,30.907,8.286c7.222,12.491-4.056,26.204-9.575,31.807
			c-37.444,30.204-141.057,107.661-175.882,107.661c-38.602,0-146.925-22.948-173.416-28.689v-123.19
			c52.526-7.721,80.353,1.963,138.665,22.284c17.739,6.181,37.836,13.185,62.265,20.994c3.64,1.588,13.742,7.274,9.893,20.126
			c-2.341,7.812-9.889,15.277-20.935,13.205c-14.847-2.786-102.225-14.638-105.938-15.141c-4.128-0.556-7.927,2.333-8.486,6.461
			c-0.559,4.127,2.333,7.927,6.461,8.486c0.905,0.123,90.708,12.302,105.181,15.019c2.246,0.421,4.428,0.62,6.535,0.62
			c16.012,0,27.788-11.491,31.631-24.322c4.045-13.503-0.16-30.594-18.634-38.416c-0.027-0.012-0.052-0.024-0.079-0.035
			c-0.025-0.01-0.047-0.022-0.071-0.031c-0.102-0.043-0.206-0.074-0.31-0.112c-0.103-0.038-0.202-0.082-0.308-0.116
			c-24.4-7.794-44.503-14.8-62.24-20.981c-58.153-20.265-88.801-30.923-143.629-23.272v-6.305c0-4.165-3.377-7.542-7.542-7.542
			h-22.618v-7.538c0-4.165-3.377-7.542-7.542-7.542H7.542c-4.165,0-7.542,3.377-7.542,7.542v165.869
			c0,4.165,3.377,7.542,7.542,7.542s7.542-3.377,7.542-7.542V293.759h75.395v180.954H75.404v-7.538c0-4.165-3.377-7.542-7.542-7.542
			s-7.542,3.377-7.542,7.542v7.538H7.542c-4.165,0-7.542,3.377-7.542,7.542s3.377,7.542,7.542,7.542H98.02
			c4.165,0,7.542-3.377,7.542-7.542v-7.921h22.618c4.165,0,7.542-3.377,7.542-7.542v-5.329
			c31.555,6.817,134.253,28.334,173.416,28.334c20.611,0,57.157-18.363,111.728-56.139c39.355-27.242,73.612-54.855,73.952-55.131
			c0.209-0.168,0.409-0.348,0.598-0.538C511.802,361.584,516.377,342.783,507.657,327.699z M120.639,451.97c0,0.007,0,0.013,0,0.02
			v7.261h-15.077v-0.001V308.838h15.077V451.97z"/>
	</g>
</g>
<g>
	<g>
		<path d="M419.432,100.136v-50.28c0-15.248-12.406-27.653-27.653-27.653H230.886c-15.248,0-27.653,12.405-27.653,27.653v50.28
			c0,0.964,0.188,1.883,0.518,2.73l9.415,56.493l-9.774,49.85c-0.003,0.015-0.006,0.031-0.009,0.047l-0.008,0.042
			c-0.014,0.071-0.019,0.141-0.03,0.211c-0.028,0.169-0.057,0.338-0.074,0.511c-0.017,0.172-0.021,0.343-0.026,0.513
			c-0.002,0.072-0.011,0.143-0.011,0.216v0.042c-0.001,0.017-0.001,0.033-0.001,0.049v40.132c0,15.248,12.405,27.653,27.653,27.653
			h160.893c15.248,0,27.653-12.405,27.653-27.653v-40.153c0-0.021,0-0.041,0-0.062v-0.008c0-0.028-0.004-0.055-0.004-0.083
			c-0.003-0.22-0.012-0.439-0.033-0.66c-0.021-0.204-0.053-0.403-0.089-0.601c-0.008-0.045-0.011-0.089-0.02-0.134l-0.003-0.013
			c-0.003-0.017-0.007-0.034-0.01-0.052l-9.773-48.871l9.427-57.502C419.248,101.994,419.432,101.088,419.432,100.136z
			 M404.348,250.972c0,6.931-5.638,12.57-12.569,12.57H230.886c-6.931,0-12.57-5.639-12.57-12.57v-32.681h186.032V250.972z
			 M394.319,161c0.008,0.107,0.017,0.215,0.028,0.322c0.019,0.156,0.042,0.31,0.069,0.463c0.01,0.055,0.014,0.109,0.025,0.163
			l8.251,41.26h-23.804c-2.779-28.909-23.763-52.567-51.322-59.358l19.267-19.266c2.946-2.946,2.946-7.72,0.001-10.666
			l-10.057-10.058c-1.414-1.415-3.333-2.209-5.333-2.209l-40.222,0.001c-2,0-3.919,0.795-5.333,2.209l-10.056,10.057
			c-2.945,2.946-2.945,7.72,0.001,10.666l19.268,19.266c-27.559,6.79-48.545,30.449-51.323,59.358H219.94l8.29-42.288
			c0.01-0.052,0.013-0.104,0.023-0.155c0.027-0.156,0.05-0.312,0.068-0.471c0.012-0.106,0.02-0.211,0.027-0.316
			c0.009-0.134,0.015-0.268,0.017-0.403c0.002-0.134-0.001-0.266-0.005-0.398c-0.004-0.107-0.01-0.214-0.019-0.321
			c-0.013-0.157-0.031-0.312-0.054-0.467c-0.007-0.053-0.009-0.106-0.018-0.159l-9.928-59.571
			c0.255-6.708,5.776-12.091,12.546-12.091H391.78c6.773,0,12.296,5.387,12.546,12.1l-9.932,60.582
			c-0.009,0.055-0.011,0.108-0.019,0.162c-0.022,0.155-0.04,0.311-0.052,0.468c-0.009,0.107-0.014,0.214-0.018,0.32
			c-0.005,0.134-0.007,0.267-0.005,0.402C394.303,160.736,394.31,160.868,394.319,161z M363.704,203.208H258.96
			c3.234-26.032,25.479-46.25,52.372-46.25S360.47,177.176,363.704,203.208z M291.831,119.25l2.514-2.514l33.974-0.001l2.515,2.515
			l-19.502,19.5L291.831,119.25z M404.349,74.519c-3.774-1.935-8.045-3.034-12.57-3.034H230.886c-4.525,0-8.795,1.099-12.57,3.034
			V49.857c0-6.931,5.639-12.57,12.57-12.57h160.893c6.931,0,12.57,5.639,12.57,12.57V74.519z"/>
	</g>
</g>
<g>
</g>
<g>
</g>
<g>
</g>
<g>
</g>
<g>
</g>
<g>
</g>
<g>
</g>
<g>
</g>
<g>
</g>
<g>
</g>
<g>
</g>
<g>
</g>
<g>
</g>
<g>
</g>
<g>
</g>
</svg>
