<?xml version="1.0" encoding="iso-8859-1"?>
<!-- Generator: Adobe Illustrator 19.0.0, SVG Export Plug-In . SVG Version: 6.00 Build 0)  -->
<svg version="1.1" id="Capa_1" xmlns="http://www.w3.org/2000/svg" xmlns:xlink="http://www.w3.org/1999/xlink" x="0px" y="0px"
	 viewBox="0 0 512 512" style="enable-background:new 0 0 512 512;" xml:space="preserve">
<g>
	<g>
		<g>
			<path d="M469.333,85.333h-17.067c-4.713,0-8.533,3.821-8.533,8.533V153.6h-68.267c-4.713,0-8.533,3.82-8.533,8.533
				s3.82,8.533,8.533,8.533h68.267v196.267c0,4.713,3.821,8.533,8.533,8.533h17.067c14.138,0,25.6,11.462,25.6,25.6
				c0,14.138-11.461,25.6-25.6,25.6H42.667c-9.263,0.031-18.258,3.108-25.6,8.755V196.267c0-14.138,11.462-25.6,25.6-25.6h93.867
				c4.713,0,8.533-3.82,8.533-8.533s-3.82-8.533-8.533-8.533H42.667C19.114,153.628,0.028,172.714,0,196.267v273.067
				C0.028,492.886,19.114,511.972,42.667,512h25.6c4.713,0,8.533-3.82,8.533-8.533v-59.733h392.533
				c23.552-0.028,42.638-19.114,42.667-42.667V128C511.972,104.448,492.886,85.362,469.333,85.333z M59.733,494.933H42.667
				c-14.138,0-25.6-11.461-25.6-25.6s11.462-25.6,25.6-25.6h17.067V494.933z M494.933,367.155c-7.342-5.647-16.337-8.724-25.6-8.755
				H460.8v-256h8.533c14.138,0,25.6,11.461,25.6,25.6V367.155z"/>
			<path d="M170.667,136.533h1.911l-0.666,1.468c-1.868,4.98-2.3,10.385-1.246,15.599v21.76c-0.003,8.931,3.568,17.492,9.916,23.774
				c2.498,2.5,4.187,5.693,4.847,9.165c3.45,15.067,10.052,29.233,19.371,41.566v10.846c-8.089-1.536-16.346,1.673-21.274,8.269
				l-13.474,17.98c-0.217,0.365-0.403,0.747-0.555,1.143l-40.55,24.32c-16.414,9.929-26.473,27.69-26.547,46.874v33.237
				c0,4.713,3.82,8.533,8.533,8.533h290.133c4.713,0,8.533-3.821,8.533-8.533v-33.28c-0.076-19.188-10.138-36.951-26.556-46.882
				l-40.542-24.311c-0.152-0.396-0.337-0.779-0.555-1.143l-13.474-17.98c-4.945-6.571-13.194-9.761-21.274-8.226v-10.846
				c9.319-12.346,15.924-26.523,19.379-41.6c0.66-3.456,2.342-6.634,4.83-9.122c6.352-6.283,9.926-14.847,9.924-23.782V153.6
				c1.052-5.124,0.668-10.44-1.109-15.36l-0.802-1.707h1.911c14.138,0,25.6-11.461,25.6-25.6s-11.462-25.6-25.6-25.6h-0.094
				c-0.103-34.368-25.574-63.377-59.639-67.925v-2.475C281.781,6.887,275.421,0.21,267.375,0h-22.75
				c-8.046,0.21-14.406,6.887-14.225,14.933v2.475c-34.065,4.548-59.536,33.558-59.639,67.925h-0.094
				c-14.138,0-25.6,11.462-25.6,25.6S156.528,136.533,170.667,136.533z M197.171,279.228c1.293-1.756,3.64-2.365,5.623-1.459
				l39.424,17.519l-17.186,20.617c-0.794,0.959-1.942,1.556-3.183,1.656c-1.237,0.084-2.459-0.31-3.413-1.101l-29.935-25.66
				L197.171,279.228z M256,305.408l13.952,16.751l-9.293,10.641h-9.318l-9.293-10.641L256,305.408z M119.466,384l0-24.704
				c-0.039-13.225,6.912-25.487,18.278-32.247l39.313-23.586l30.302,25.924c3.922,3.372,8.924,5.225,14.097,5.222
				c0.623,0,1.237,0,1.86-0.077c1.965-0.194,3.895-0.657,5.734-1.374l8.286,9.472L216.96,384H119.466z M235.981,384l16.802-34.133
				h6.434L276.019,384H235.981z M334.942,303.462l39.305,23.578c11.371,6.761,18.325,19.026,18.287,32.256l0,24.704H295.04
				l-20.343-41.335l8.286-9.472c1.84,0.717,3.769,1.179,5.734,1.374c0.623,0.051,1.237,0.077,1.86,0.077
				c5.166-0.011,10.156-1.876,14.063-5.257L334.942,303.462z M309.205,277.734c1.991-0.886,4.33-0.269,5.623,1.485l8.67,11.58
				l-29.952,25.651c-0.955,0.791-2.176,1.187-3.413,1.109c-1.241-0.099-2.389-0.696-3.183-1.656l-17.169-20.651L309.205,277.734z
				 M324.412,151.381c-0.098,0.506-0.146,1.021-0.145,1.536v22.443c-0.012,4.41-1.788,8.632-4.932,11.725
				c-4.849,4.867-8.148,11.061-9.481,17.801c-3.069,12.909-8.826,25.026-16.896,35.558c-1.829,2.576-2.816,5.656-2.825,8.815v18.304
				L256,282.735l-34.133-15.172v-18.304c-0.017-3.211-1.034-6.337-2.91-8.943c-8.026-10.487-13.752-22.548-16.802-35.396
				c-1.333-6.756-4.638-12.965-9.498-17.843c-3.139-3.092-4.912-7.31-4.924-11.716v-22.443c0.002-0.501-0.044-1.001-0.137-1.493
				c-0.361-1.998-0.459-4.035-0.29-6.059l1.118-2.466c0.725-1.425,2.44-4.147,3.874-6.366H319.71
				c1.417,2.193,3.089,4.838,3.703,5.973l1.246,2.68C324.879,147.252,324.795,149.339,324.412,151.381z M230.4,34.637v25.097
				c0,4.713,3.82,8.533,8.533,8.533s8.533-3.82,8.533-8.533V17.067h17.067v42.667c0,4.713,3.821,8.533,8.533,8.533
				c4.713,0,8.533-3.82,8.533-8.533V34.637c24.547,4.442,42.441,25.751,42.573,50.697H187.827
				C187.959,60.388,205.853,39.079,230.4,34.637z M170.667,102.4h170.667c4.713,0,8.533,3.82,8.533,8.533s-3.82,8.533-8.533,8.533
				H170.667c-4.713,0-8.533-3.82-8.533-8.533S165.954,102.4,170.667,102.4z"/>
		</g>
	</g>
</g>
<g>
</g>
<g>
</g>
<g>
</g>
<g>
</g>
<g>
</g>
<g>
</g>
<g>
</g>
<g>
</g>
<g>
</g>
<g>
</g>
<g>
</g>
<g>
</g>
<g>
</g>
<g>
</g>
<g>
</g>
</svg>
